<svg width="13" height="23" viewBox="0 0 13 23" fill="none" xmlns="http://www.w3.org/2000/svg">
<path id="arrow-right" fill-rule="evenodd" clip-rule="evenodd" d="M10.3848 11.6215L10.3795 11.6154L10.3847 11.6217L10.3795 11.6279L10.3848 11.6219V11.6215ZM10.3849 11.622L10.385 11.6218L10.3851 11.6219L10.3853 11.6222C10.3853 11.6222 10.3853 11.6222 10.3853 11.6222M10.3853 11.6222C10.3852 11.6221 10.3852 11.622 10.3851 11.6219L10.3853 11.6222ZM10.3849 11.622C10.3849 11.6221 10.3849 11.6222 10.3848 11.6222C10.3848 11.6223 10.3848 11.6224 10.3848 11.6224C10.3847 11.6227 10.3848 11.6227 10.3848 11.6224C10.3848 11.6224 10.3848 11.6223 10.3848 11.6222C10.3848 11.6222 10.3848 11.6222 10.3848 11.6222M12.3848 11.6222C12.3849 11.3306 12.3214 11.0365 12.1912 10.7629C12.1168 10.6063 12.0212 10.4577 11.905 10.3219L4.22888 1.11055C3.52175 0.261996 2.26062 0.147349 1.41206 0.854476C0.56351 1.56161 0.448863 2.82274 1.15599 3.67129L7.78132 11.6217L1.15599 19.5721C0.448862 20.4206 0.563511 21.6818 1.41206 22.3889L2.05225 21.6207L1.41207 22.3889C2.26062 23.096 3.52175 22.9814 4.22888 22.1328L11.905 12.9215C12.0211 12.7859 12.1166 12.6375 12.191 12.4811C12.3212 12.2077 12.3848 11.9137 12.3848 11.6222Z" fill="#BC55CD"/>
</svg>
