<svg width="23" height="12" viewBox="0 0 23 12" fill="none" xmlns="http://www.w3.org/2000/svg">
<path id="arrow-up" fill-rule="evenodd" clip-rule="evenodd" d="M11.7689 2.00635L11.7629 2.01158L11.7691 2.00637L11.7754 2.01157L11.7694 2.00635H11.7689ZM11.7695 2.0062L11.7693 2.00607L11.7693 2.00603L11.7697 2.00585C11.7697 2.00585 11.7697 2.00585 11.7697 2.00585M11.7697 2.00585C11.7696 2.00591 11.7694 2.00596 11.7693 2.00601L11.7697 2.00585ZM11.7695 2.0062C11.7696 2.00623 11.7696 2.00625 11.7697 2.00627C11.7698 2.00629 11.7698 2.00631 11.7699 2.00632C11.7702 2.00639 11.7702 2.00636 11.7699 2.00635C11.7698 2.00635 11.7698 2.00635 11.7697 2.00635C11.7697 2.00635 11.7697 2.00635 11.7697 2.00635M11.7697 0.00634794C11.4781 0.00619208 11.184 0.0696893 10.9104 0.199872C10.7537 0.274277 10.6051 0.369889 10.4694 0.486091L1.25801 8.16224C0.409457 8.86936 0.29481 10.1305 1.00194 10.979C1.70907 11.8276 2.9702 11.9423 3.81875 11.2351L11.7691 4.60979L19.7196 11.2351C20.5681 11.9423 21.8292 11.8276 22.5364 10.979L21.7681 10.3389L22.5364 10.979C23.2435 10.1305 23.1288 8.86937 22.2803 8.16224L13.0689 0.486095C12.9333 0.370044 12.785 0.274527 12.6285 0.200162C12.3551 0.0699414 12.0611 0.00634753 11.7697 0.00634794Z" fill="#EE8344"/>
</svg>
