<svg width="12" height="23" viewBox="0 0 12 23" fill="none" xmlns="http://www.w3.org/2000/svg">
<path id="arrow-left" fill-rule="evenodd" clip-rule="evenodd" d="M2 11.6219L2.00524 11.628L2.00002 11.6217L2.00523 11.6155L2 11.6215V11.6219ZM1.99985 11.6214L1.99972 11.6216L1.99968 11.6216L1.9995 11.6212C1.9995 11.6212 1.9995 11.6212 1.9995 11.6212M1.9995 11.6212C1.99956 11.6213 1.99961 11.6214 1.99966 11.6215L1.9995 11.6212ZM1.99985 11.6214C1.99988 11.6213 1.9999 11.6212 1.99992 11.6212C1.99994 11.6211 1.99996 11.621 1.99997 11.621C2.00004 11.6207 2.00001 11.6207 2 11.621C2 11.6211 2 11.6211 2 11.6212C2 11.6212 2 11.6212 2 11.6212M2.86245e-07 11.6212C-0.00015558 11.9128 0.0633416 12.2069 0.193525 12.4805C0.267929 12.6371 0.363542 12.7857 0.479743 12.9215L8.15589 22.1329C8.86302 22.9814 10.1241 23.0961 10.9727 22.3889C11.8213 21.6818 11.9359 20.4207 11.2288 19.5721L4.60344 11.6217L11.2288 3.67132C11.9359 2.82277 11.8213 1.56164 10.9727 0.854507L10.3325 1.62273L10.9727 0.854506C10.1241 0.147381 8.86302 0.262026 8.15589 1.11058L0.479747 10.322C0.363696 10.4575 0.268179 10.6059 0.193814 10.7623C0.0635937 11.0358 -1.30988e-07 11.3297 2.86245e-07 11.6212Z" fill="#BC55CD"/>
</svg>
