<svg width="44" height="45" viewBox="0 0 44 45" fill="none" xmlns="http://www.w3.org/2000/svg">
<path id="play" fill-rule="evenodd" clip-rule="evenodd" d="M37.5564 6.98979C41.6822 11.1156 44 16.7114 44 22.5461C44 28.3809 41.6822 33.9767 37.5564 38.1025C33.4306 42.2283 27.8348 44.5461 22 44.5461C16.1652 44.5461 10.5694 42.2283 6.44365 38.1025C2.31784 33.9767 -3.8147e-06 28.3809 0 22.5461C-3.8147e-06 16.7114 2.31784 11.1156 6.44365 6.98979C10.5694 2.86399 16.1652 0.546138 22 0.546143C27.8348 0.546138 33.4306 2.86399 37.5564 6.98979ZM31.9719 18.8409C32.0971 18.6833 32.161 18.4864 32.1537 18.2856C32.1351 17.83 31.7633 17.469 31.3075 17.4692L12.6988 17.4692C11.989 17.4654 11.5901 18.2847 12.0311 18.8409C13.5066 20.7189 14.9818 22.5974 16.4569 24.4759C18.0829 26.5465 19.709 28.6171 21.3355 30.6871C21.6743 31.1166 22.3254 31.1166 22.6642 30.6871L31.9719 18.8409Z" fill="#232323"/>
</svg>
