<svg width="189" height="189" viewBox="0 0 189 189" fill="none" xmlns="http://www.w3.org/2000/svg"><path d="m97.189 11.868-1.833-8.806 1.113.085 1.39 6.961 2.432-6.661 1.119.08 1.391 6.96 2.432-6.666 1.119.085-3.157 8.423-1.065-.081-1.419-6.903-2.457 6.605zm10.046.946 4.587-7.872 1.457.302 1.076 9.048-1.087-.226-1.02-8.399.329.069-4.256 7.303zm1.774-1.697.203-.981 4.395.912-.204.98zm9.373 4.355 2.341-7.257-2.803-.905.311-.965 6.624 2.137-.311.965-2.804-.904-2.341 7.257zm9.496 3.766q-1.171-.538-1.752-1.432a3.66 3.66 0 0 1-.587-2.013q-.003-1.116.554-2.327.556-1.21 1.404-1.937a3.67 3.67 0 0 1 1.91-.865q1.055-.143 2.228.396 1.363.626 1.923 1.721.565 1.099.359 2.424l-1.107-.192q.164-.988-.22-1.778-.383-.79-1.381-1.248-.878-.404-1.644-.274t-1.389.71q-.62.572-1.058 1.514-.437.934-.47 1.785a2.7 2.7 0 0 0 .372 1.518q.407.667 1.284 1.071.998.459 1.847.235.851-.23 1.492-.992l.867.715q-.869 1.014-2.073 1.306-1.196.289-2.559-.337m6.395 2.894 4.563-7.336.907.564-2.012 3.235 3.861 2.402 2.013-3.235.907.564-4.564 7.337-.907-.564 2.016-3.24-3.862-2.403-2.016 3.24zm12.879 8.965 4.983-5.772-2.229-1.926.662-.767 5.268 4.548-.662.768-2.23-1.925-4.984 5.772zm5.016 4.437 6.358-5.851.723.786-2.804 2.58 3.08 3.346 2.804-2.58.723.786-6.358 5.85-.723-.785 2.808-2.584-3.08-3.347-2.808 2.584zm6.732 7.542 6.975-5.099 3.222 4.408-.819.599-2.592-3.546-2.184 1.597L165.669 44l-.819.599-2.167-2.965-2.334 1.707 2.592 3.546-.819.598zm6.601 9.61.851-.444 4.844 1.773q.606.222 1.021.186.424-.034.784-.225.44-.234.689-.623.248-.39.27-.85.024-.453-.209-.893a1.78 1.78 0 0 0-1.512-.958 1.7 1.7 0 0 0-.878.214l-.511-.965q.72-.382 1.449-.34.733.04 1.35.446a3.03 3.03 0 0 1 1.012 1.141q.377.71.345 1.447-.025.733-.417 1.354a2.75 2.75 0 0 1-1.087.997 3 3 0 0 1-.932.33q-.43.073-.881-.022a7.5 7.5 0 0 1-1.003-.303l-4.02-1.477.253-.29 2.171 4.099-.901.477zm4.947 10.599a2.96 2.96 0 0 1-.205-1.533q.115-.75.58-1.349.473-.596 1.253-.907l2.943-1.173a2.96 2.96 0 0 1 1.533-.205 2.8 2.8 0 0 1 1.349.58q.596.473.906 1.253a2.96 2.96 0 0 1 .205 1.533 2.75 2.75 0 0 1-.58 1.35q-.473.594-1.253.906l-2.942 1.173a2.97 2.97 0 0 1-1.534.205 2.8 2.8 0 0 1-1.348-.58 2.95 2.95 0 0 1-.907-1.253m.953-.38q.189.474.571.767t.857.369q.481.072.949-.114l3.06-1.22q.474-.189.767-.571t.369-.858q.075-.475-.114-.949a1.8 1.8 0 0 0-.571-.767 1.86 1.86 0 0 0-.857-.369 1.8 1.8 0 0 0-.95.114l-3.059 1.22a1.8 1.8 0 0 0-.767.571q-.294.382-.369.858-.074.48.114.949m1.317 5.837.926-.254 4.358 2.758q.546.345.959.398.421.056.814-.054.479-.135.805-.463a1.7 1.7 0 0 0 .428-1.69 1.7 1.7 0 0 0-.485-.818 1.8 1.8 0 0 0-.79-.439 1.7 1.7 0 0 0-.903.023l-.295-1.051q.786-.221 1.488-.025.71.194 1.225.721.524.533.747 1.33a2.8 2.8 0 0 1 .031 1.487q-.18.711-.693 1.235-.506.528-1.275.745a3 3 0 0 1-.98.125 2.4 2.4 0 0 1-.856-.208 7.5 7.5 0 0 1-.916-.51l-3.617-2.293.309-.23 1.254 4.465-.982.276zm2.841 11.905 1.568-.268-.671-3.915 1-.171 6.43 1.79.205 1.195-6.431-1.79.466 2.72 2.395-.41.182 1.065-2.395.41.152.887-.999.17-.152-.886-1.567.268zm.937 11.849q-.012-1.002.391-1.775a3.06 3.06 0 0 1 1.143-1.221q.744-.442 1.752-.455l5.484-.07.019 1.08-5.399.069a2.6 2.6 0 0 0-1.065.218 2.2 2.2 0 0 0-.743.561q-.296.346-.44.756a2.5 2.5 0 0 0-.134.824 2.42 2.42 0 0 0 .614 1.57q.305.338.763.536.459.198 1.065.19l5.4-.07.013 1.08-5.489.072q-1.002.013-1.758-.416a3 3 0 0 1-1.179-1.185q-.424-.762-.437-1.764m.201 6.344 4.028 3.424 4.553-2.415-.14 1.294-3.588 1.863 3.106 2.581-.141 1.301-3.93-3.335-4.667 2.475.14-1.294 3.697-1.923-3.199-2.67zm6.763 13.974-.218 1.064-8.003-3.988.218-1.064zm-10.433 5.324q.298-.957.922-1.567a3.06 3.06 0 0 1 1.465-.806q.844-.189 1.806.111l5.236 1.632-.316 1.033-5.155-1.607a2.6 2.6 0 0 0-1.08-.124 2.3 2.3 0 0 0-.881.304 2.4 2.4 0 0 0-.653.582 2.5 2.5 0 0 0-.382.742 2.43 2.43 0 0 0 .098 1.683q.184.415.559.747.375.33.953.51l5.155 1.608-.321 1.031-5.242-1.634q-.956-.298-1.542-.94a3 3 0 0 1-.754-1.492q-.166-.856.132-1.813m-2.114 6.619 7.995 3.275-.405.988-7.995-3.274zm-4.532 9.191a4.2 4.2 0 0 1 1.079-1.293 3.16 3.16 0 0 1 1.367-.626 3 3 0 0 1 1.501.131l-.387 1.048a2.16 2.16 0 0 0-1.54.137q-.723.359-1.161 1.145-.285.507-.355 1.004-.069.505.095.912t.573.636q.25.14.479.151.23.02.441-.063.212-.074.407-.212.194-.139.366-.311l1.645-1.604q.269-.261.575-.476a2.6 2.6 0 0 1 .654-.322q.348-.108.728-.074.385.036.805.27.67.375.948.984.282.617.199 1.355a3.9 3.9 0 0 1-.506 1.484q-.429.757-1.03 1.204a2.9 2.9 0 0 1-1.31.574 3.05 3.05 0 0 1-1.477-.124l.38-1.086q.506.179.987.09a2 2 0 0 0 .888-.383q.408-.302.683-.78.263-.459.318-.915a1.65 1.65 0 0 0-.093-.829 1.08 1.08 0 0 0-.496-.565q-.345-.194-.671-.114a1.7 1.7 0 0 0-.608.3q-.284.226-.518.46l-1.215 1.204a8 8 0 0 1-.505.46 3 3 0 0 1-.691.439 1.94 1.94 0 0 1-.857.181q-.468 0-1.012-.304a2.4 2.4 0 0 1-.847-.762 2.3 2.3 0 0 1-.376-1 3.3 3.3 0 0 1 .074-1.141q.135-.599.463-1.185m-2.908 5.393 7.001 5.063-.626.866-3.087-2.233-2.666 3.685 3.087 2.233-.626.865-7-5.064.626-.865 3.092 2.236 2.665-3.685-3.092-2.236zm-8.591 10.624q.878-.945 1.909-1.216a3.67 3.67 0 0 1 2.095.073q1.062.349 2.037 1.255.975.907 1.399 1.941.42 1.038.224 2.085-.197 1.047-1.074 1.991-.884.95-1.913 1.22a3.6 3.6 0 0 1-2.092-.077q-1.06-.348-2.037-1.255-.975-.907-1.399-1.941a3.63 3.63 0 0 1-.228-2.08q.196-1.048 1.079-1.996m.747.694q-.663.704-.779 1.472a2.65 2.65 0 0 0 .242 1.545q.355.773 1.111 1.475.76.707 1.552 1.001.787.299 1.549.123.758-.172 1.421-.875.662-.704.779-1.472.112-.763-.243-1.536-.354-.773-1.111-1.484-.751-.708-1.543-1.002a2.7 2.7 0 0 0-1.554-.126q-.762.176-1.424.879m-6.686 5.521 7.366 5.163-.87.7-5.78-4.121 2.789 6.519-.87.709-5.78-4.121 2.793 6.524-.874.704-3.468-8.3.833-.67 5.761 4.059-2.732-6.496zm-9.307 7.124 4.431 7.417-2.931 1.751q-.108.065-.264.144a2 2 0 0 1-.307.141q-.658.267-1.256.191a2.3 2.3 0 0 1-1.101-.44 3.2 3.2 0 0 1-.849-.953q-.514-.86-.444-1.762.072-.896.843-1.572l.316-.266 2.282-1.363-1.637-2.741zm-4.415 2.637 3.266 2.144-.74.82-3.576-2.337zm5.655 1.521-1.983 1.185a3 3 0 0 0-.436.323 1.4 1.4 0 0 0-.399.644q-.094.356-.022.712.076.36.26.669.186.309.463.541.282.237.641.323.354.09.755-.045.132-.037.264-.109.129-.063.228-.122l1.983-1.185zm-9.36.541 3.597 7.855-4.964 2.273-.422-.921 3.993-1.829-1.126-2.46-3.339 1.528-.422-.922 3.338-1.528-1.204-2.63-3.993 1.829-.422-.922zm-7.785 3.454 2.763 8.187-5.173 1.745-.324-.96 4.161-1.405-.865-2.564-3.479 1.175-.325-.961 3.479-1.174-.924-2.741-4.162 1.405-.324-.961zm-8.246 2.636 1.971 8.412-1.039.244-1.74-7.425-3.903.914-.231-.987zm-13.048 4.619a1.54 1.54 0 0 1 1.385.612q.234.322.271.747.038.424-.135.783-.18.359-.503.581a1.54 1.54 0 0 1-.754.265 1.4 1.4 0 0 1-.746-.133 1.4 1.4 0 0 1-.579-.484 1.47 1.47 0 0 1-.271-.747q-.038-.424.135-.783a1.5 1.5 0 0 1 .485-.579q.317-.228.712-.262m-12.108-1.909 1.734 8.827-1.112-.098-1.313-6.976-2.506 6.633-1.118-.092-1.312-6.976-2.507 6.639-1.118-.098 3.251-8.387 1.064.093 1.342 6.919 2.531-6.577zm-10.043-1.059-4.678 7.818-1.453-.319-.972-9.059 1.084.238.924 8.41-.328-.072 4.339-7.255zm-1.793 1.676-.215.979-4.384-.963.215-.979zm-9.311-4.46-2.423 7.231 2.793.936-.322.962-6.6-2.212.323-.962 2.793.937 2.424-7.231zm-9.457-3.875q1.165.552 1.735 1.452t.565 2.019q-.01 1.118-.58 2.321t-1.427 1.921a3.67 3.67 0 0 1-1.92.844q-1.057.13-2.223-.422-1.356-.642-1.903-1.744-.554-1.104-.332-2.427l1.105.205q-.174.985.2 1.78t1.366 1.264q.874.414 1.641.292.767-.121 1.397-.693.626-.567 1.076-1.502.447-.93.49-1.78a2.7 2.7 0 0 0-.355-1.522q-.399-.674-1.272-1.086-.992-.47-1.844-.255-.854.22-1.503.974l-.858-.725q.88-1.003 2.087-1.282 1.198-.276 2.555.366m-6.355-2.963-4.646 7.284-.9-.574 2.048-3.212-3.835-2.446-2.048 3.213-.9-.575 4.645-7.284.9.574-2.052 3.217 3.835 2.446 2.052-3.218zm-12.78-9.11-5.048 5.716 2.208 1.95-.671.76-5.217-4.608.671-.76 2.208 1.951 5.048-5.716zm-4.967-4.493-6.422 5.779-.715-.794 2.832-2.548-3.042-3.381-2.832 2.548-.714-.793 6.422-5.78.715.794-2.837 2.553 3.042 3.381 2.837-2.553zm-6.647-7.62-7.032 5.02-3.173-4.443.825-.589 2.552 3.574 2.203-1.572-2.134-2.989.826-.589 2.133 2.989 2.354-1.681-2.552-3.574.825-.589zm-6.493-9.682-.856.434-4.823-1.828q-.603-.23-1.02-.197a2 2 0 0 0-.786.216 1.8 1.8 0 0 0-.695.615 1.7 1.7 0 0 0-.081 1.742q.236.46.639.704.397.247.862.271.462.018.88-.204l.5.971q-.725.374-1.453.323a2.66 2.66 0 0 1-1.344-.461 3 3 0 0 1-1-1.153 2.8 2.8 0 0 1-.328-1.45q.034-.733.432-1.35.39-.62 1.099-.984.501-.259.935-.32.432-.067.881.032.444.102 1 .315l4.003 1.522-.257.287-2.124-4.123.907-.467zm-4.823-10.648q.303.783.187 1.536-.123.748-.594 1.342-.48.59-1.264.892l-2.956 1.14a2.97 2.97 0 0 1-1.535.188 2.8 2.8 0 0 1-1.342-.595 2.96 2.96 0 0 1-.893-1.264 2.96 2.96 0 0 1-.187-1.535 2.75 2.75 0 0 1 .595-1.342q.48-.59 1.263-.893l2.956-1.14a2.96 2.96 0 0 1 1.536-.187q.745.117 1.342.595.59.48.892 1.263m-.957.369a1.77 1.77 0 0 0-.562-.773 1.85 1.85 0 0 0-.853-.378 1.8 1.8 0 0 0-.951.103l-3.073 1.185q-.475.184-.774.562a1.9 1.9 0 0 0-.378.854q-.081.474.103.95.181.471.562.774.38.297.853.378.475.08.951-.103l3.073-1.186q.471-.181.774-.562.297-.379.378-.853.078-.48-.103-.951m-1.254-5.861-.93.243-4.325-2.808q-.543-.351-.955-.408a2 2 0 0 0-.814.045q-.48.129-.81.453a1.7 1.7 0 0 0-.449 1.686q.135.498.476.823.336.325.785.448.447.116.904-.013l.283 1.054q-.789.212-1.489.009a2.67 2.67 0 0 1-1.216-.736 3 3 0 0 1-.732-1.338 2.8 2.8 0 0 1-.014-1.487 2.7 2.7 0 0 1 .707-1.228 2.76 2.76 0 0 1 1.283-.729q.544-.147.982-.115.435.026.854.218.412.194.91.52l3.59 2.335-.312.227-1.203-4.48.986-.264zm-2.704-11.923-1.57.251.626 3.922-1.001.16-6.41-1.863-.191-1.197 6.41 1.863-.435-2.725-2.4.383-.17-1.067 2.4-.383-.142-.889 1-.16.143.889 1.57-.251zm-.805-11.886q0 1.002-.412 1.77-.412.77-1.156 1.208-.75.434-1.757.435l-5.484.01-.008-1.08 5.4-.01q.612 0 1.068-.205.45-.21.749-.554.3-.342.449-.75a2.5 2.5 0 0 0 .142-.823 2.4 2.4 0 0 0-.596-1.577q-.3-.341-.757-.544a2.6 2.6 0 0 0-1.062-.203l-5.4.01-.002-1.08 5.49-.01q1.002 0 1.753.435a3 3 0 0 1 1.166 1.199q.414.766.416 1.769m-.129-6.326-3.99-3.47-4.58 2.365.155-1.293 3.608-1.822-3.077-2.616.156-1.3 3.891 3.38 4.696-2.423-.155 1.293-3.718 1.88 3.169 2.707zM5.207 74.877l.23-1.061 7.957 4.08-.23 1.061zm10.49-5.192q-.31.953-.94 1.556-.63.602-1.473.79-.848.18-1.806-.132L6.26 70.207l.328-1.029 5.137 1.666q.582.189 1.078.136.494-.061.884-.294t.66-.575q.264-.35.39-.737a2.42 2.42 0 0 0-.078-1.684 2.2 2.2 0 0 0-.55-.753 2.6 2.6 0 0 0-.948-.522L8.025 64.75l.334-1.027 5.222 1.694q.953.309 1.531.957.58.642.737 1.5t-.152 1.812m2.186-6.589-7.958-3.364.416-.984 7.958 3.364zm4.639-9.146q-.457.796-1.094 1.282-.636.48-1.373.61a3 3 0 0 1-1.5-.148l.398-1.044q.813.224 1.542-.12.727-.35 1.174-1.131.29-.505.366-1 .075-.504-.085-.914a1.25 1.25 0 0 0-.565-.642 1.1 1.1 0 0 0-.478-.156 1 1 0 0 0-.44.058 1.6 1.6 0 0 0-.41.207q-.196.138-.37.307l-1.663 1.585a5 5 0 0 1-.58.47 2.5 2.5 0 0 1-.658.314q-.35.104-.73.066a2.1 2.1 0 0 1-.8-.28q-.666-.381-.938-.993a2.54 2.54 0 0 1-.183-1.357q.09-.737.522-1.478.438-.753 1.044-1.193.603-.45 1.316-.56.717-.115 1.476.141l-.392 1.082a1.9 1.9 0 0 0-.986-.102q-.486.075-.892.374a2.5 2.5 0 0 0-.692.772 2.4 2.4 0 0 0-.33.912q-.06.456.085.83.14.37.49.57.342.197.67.122.32-.078.61-.293.287-.223.523-.454l1.23-1.19a8 8 0 0 1 .509-.455q.304-.255.696-.43.386-.18.86-.172.466.005 1.008.315.541.31.838.771.299.454.364 1.005.06.546-.086 1.14a4.4 4.4 0 0 1-.476 1.18m2.97-5.362-6.944-5.142.636-.858 3.062 2.267 2.707-3.655-3.062-2.267.635-.858 6.944 5.142-.636.858-3.067-2.271-2.706 3.655 3.066 2.27zM34.2 38.065q-.888.934-1.922 1.194a3.66 3.66 0 0 1-2.095-.097q-1.057-.36-2.022-1.278t-1.377-1.956a3.66 3.66 0 0 1-.2-2.087q.206-1.046 1.096-1.98.893-.939 1.926-1.198a3.63 3.63 0 0 1 2.09.1q1.059.36 2.023 1.279t1.377 1.956q.412 1.038.205 2.083-.207 1.044-1.1 1.984m-.739-.703q.67-.696.796-1.463a2.66 2.66 0 0 0-.226-1.548q-.345-.776-1.094-1.488-.75-.715-1.54-1.018a2.6 2.6 0 0 0-1.548-.14q-.76.165-1.43.86-.67.694-.796 1.462-.12.763.226 1.54.345.776 1.094 1.496.743.715 1.532 1.018.788.303 1.552.144.765-.168 1.434-.863m6.748-5.446-7.308-5.245.877-.69 5.734 4.185-2.716-6.55.878-.699 5.734 4.185-2.72-6.555.882-.693 3.374 8.338-.84.66-5.715-4.123 2.66 6.527zm9.384-7.018-4.347-7.467 2.95-1.717q.11-.065.266-.14.153-.084.309-.139.66-.26 1.257-.177.603.08 1.096.452.491.367.839.963.504.866.424 1.767-.083.894-.86 1.563l-.32.262-2.297 1.337 1.606 2.759zm4.444-2.587-3.242-2.181.75-.811 3.55 2.377zM48.4 20.726l1.996-1.162q.099-.057.217-.14.124-.087.223-.178.309-.292.406-.64.097-.355.03-.711a2.2 2.2 0 0 0-.253-.672 2.1 2.1 0 0 0-.457-.547 1.54 1.54 0 0 0-.637-.33 1.3 1.3 0 0 0-.755.037 1.3 1.3 0 0 0-.265.106 3 3 0 0 0-.23.12L46.68 17.77zm9.372-.438-3.507-7.896 4.99-2.216.411.926-4.013 1.783 1.098 2.473 3.356-1.49.411.926-3.355 1.49 1.174 2.644 4.013-1.783.412.927zm7.818-3.363-2.67-8.217 5.193-1.687.313.964-4.177 1.357.836 2.574 3.492-1.135.314.965-3.493 1.134.894 2.75 4.177-1.356.313.964zm8.286-2.545-1.875-8.434 1.043-.232 1.655 7.445 3.912-.87.22.99zM86.97 9.911a1.54 1.54 0 0 1-.787-.137 1.6 1.6 0 0 1-.592-.49 1.47 1.47 0 0 1-.262-.75 1.47 1.47 0 0 1 .144-.782q.183-.357.51-.575.33-.225.756-.257.394-.03.745.141.35.166.573.492.23.326.263.75t-.144.781a1.5 1.5 0 0 1-.492.574 1.4 1.4 0 0 1-.714.253" fill="#F3F3F3"/></svg>