<svg width="132" height="133" viewBox="0 0 132 133" fill="none" xmlns="http://www.w3.org/2000/svg">
<path id="play" fill-rule="evenodd" clip-rule="evenodd" d="M19.3309 19.8395C31.7083 7.46208 48.4957 0.50853 66 0.508545C83.5043 0.50853 100.292 7.46208 112.669 19.8395C125.046 32.2169 132 49.0042 132 66.5085C132 84.0128 125.046 100.8 112.669 113.178C100.292 125.555 83.5043 132.509 66 132.509C48.4957 132.509 31.7083 125.555 19.3309 113.178C6.95353 100.8 -1.48113e-05 84.0128 0 66.5085C-1.48113e-05 49.0042 6.95353 32.2169 19.3309 19.8395ZM54.8844 36.5927C54.4116 36.217 53.821 36.0255 53.2185 36.0473C51.8517 36.1032 50.7685 37.2186 50.7693 38.5858V94.4121C50.7579 96.5414 53.2158 97.7382 54.8844 96.4151C60.5214 91.9862 66.1601 87.5582 71.7989 83.1302C78.0075 78.2546 84.2162 73.379 90.4229 68.502C91.7114 67.4856 91.7114 65.5322 90.4229 64.5158L54.8844 36.5927Z" fill="#232323"/>
</svg>
