<svg width="188" height="188" viewBox="0 0 188 188" fill="none" xmlns="http://www.w3.org/2000/svg">
  <path d="M96.6889 11.3681L94.8559 2.56192L95.9686 2.64738L97.3597 9.60834L99.7909 2.94696L100.91 3.02689L102.301 9.98785L104.733 3.32049L105.852 3.4064L102.695 11.8294L101.63 11.7477L100.211 4.84468L97.7538 11.4499L96.6889 11.3681Z" fill="#232323"/>
  <path d="M106.735 12.3135L111.322 4.44157L112.779 4.74399L113.855 13.7914L112.768 13.5658L111.748 5.16717L112.077 5.23546L107.821 12.5391L106.735 12.3135ZM108.509 10.6166L108.712 9.63548L113.107 10.5476L112.903 11.5287L108.509 10.6166Z" fill="#232323"/>
  <path d="M117.882 14.9724L120.223 7.71475L117.42 6.81027L117.731 5.84524L124.355 7.98209L124.044 8.94712L121.24 8.04264L118.899 15.3003L117.882 14.9724Z" fill="#232323"/>
  <path d="M127.378 18.7381C126.597 18.3791 126.013 17.9017 125.626 17.306C125.239 16.7102 125.044 16.0392 125.039 15.293C125.037 14.5485 125.222 13.7728 125.593 12.9658C125.963 12.1589 126.432 11.5134 126.997 11.0293C127.567 10.547 128.203 10.2583 128.907 10.1635C129.611 10.0686 130.353 10.2007 131.135 10.5597C132.044 10.9771 132.685 11.551 133.058 12.2815C133.435 13.0136 133.554 13.8213 133.417 14.7047L132.31 14.5131C132.419 13.8544 132.346 13.2617 132.09 12.735C131.835 12.2082 131.374 11.7921 130.709 11.4866C130.124 11.2177 129.576 11.1267 129.065 11.2134C128.554 11.3 128.091 11.5364 127.676 11.9224C127.263 12.3048 126.91 12.8095 126.618 13.4367C126.327 14.0602 126.17 14.6551 126.148 15.2215C126.127 15.7842 126.251 16.2902 126.52 16.7395C126.791 17.1851 127.219 17.5424 127.804 17.8112C128.469 18.1168 129.085 18.1948 129.651 18.0455C130.218 17.8925 130.716 17.5619 131.143 17.0538L132.01 17.7688C131.431 18.4449 130.74 18.8802 129.937 19.075C129.14 19.2678 128.287 19.1555 127.378 18.7381Z" fill="#232323"/>
  <path d="M133.773 21.6325L138.336 14.296L139.243 14.8601L137.231 18.0953L141.092 20.4975L143.105 17.2623L144.012 17.8264L139.448 25.1629L138.541 24.5988L140.557 21.3585L136.695 18.9563L134.679 22.1966L133.773 21.6325Z" fill="#232323"/>
  <path d="M146.652 30.5968L151.635 24.8247L149.406 22.8994L150.068 22.1319L155.336 26.6805L154.674 27.448L152.444 25.5227L147.46 31.2948L146.652 30.5968Z" fill="#232323"/>
  <path d="M151.668 35.0335L158.026 29.1828L158.749 29.9686L155.945 32.5487L159.025 35.8952L161.829 33.3152L162.552 34.101L156.194 39.9518L155.471 39.1659L158.279 36.5818L155.199 33.2353L152.391 35.8194L151.668 35.0335Z" fill="#232323"/>
  <path d="M158.4 42.5764L165.375 37.4775L168.597 41.8853L167.778 42.4837L165.186 38.9381L163.002 40.5351L165.169 43.4994L164.35 44.0978L162.183 41.1335L159.849 42.8402L162.441 46.3858L161.622 46.9842L158.4 42.5764Z" fill="#232323"/>
  <path d="M165.001 52.1859L165.852 51.7419L170.696 53.5154C171.1 53.6634 171.44 53.7252 171.717 53.7008C171.999 53.6781 172.261 53.6031 172.501 53.4758C172.794 53.3204 173.024 53.1129 173.19 52.8531C173.355 52.5934 173.445 52.3103 173.46 52.004C173.476 51.7012 173.406 51.4032 173.251 51.1098C173.09 50.8058 172.874 50.5737 172.604 50.4136C172.337 50.2517 172.049 50.1645 171.739 50.1521C171.431 50.1432 171.138 50.2144 170.861 50.3659L170.35 49.4009C170.83 49.1462 171.314 49.0329 171.799 49.0609C172.288 49.0871 172.738 49.2358 173.149 49.5071C173.565 49.7801 173.902 50.1605 174.161 50.6483C174.412 51.122 174.527 51.6042 174.506 52.095C174.489 52.5838 174.35 53.0353 174.089 53.4494C173.834 53.8651 173.472 54.1975 173.002 54.4465C172.669 54.6224 172.359 54.7326 172.07 54.7769C171.783 54.8248 171.489 54.8174 171.189 54.7546C170.892 54.69 170.558 54.5887 170.186 54.4506L166.166 52.9746L166.419 52.6841L168.59 56.7828L167.689 57.2602L165.001 52.1859Z" fill="#232323"/>
  <path d="M169.948 62.7852C169.74 62.265 169.672 61.7539 169.743 61.2519C169.819 60.752 170.013 60.3025 170.323 59.9032C170.638 59.5061 171.056 59.2039 171.576 58.9964L174.519 57.8229C175.039 57.6154 175.55 57.5473 176.052 57.6183C176.556 57.6931 177.005 57.8864 177.401 58.198C177.798 58.5133 178.1 58.9311 178.307 59.4512C178.515 59.9714 178.583 60.4825 178.512 60.9846C178.441 61.4866 178.248 61.9362 177.932 62.3332C177.617 62.7303 177.199 63.0325 176.679 63.24L173.737 64.4135C173.216 64.621 172.705 64.6892 172.203 64.6181C171.705 64.5455 171.255 64.3523 170.855 64.0384C170.457 63.7231 170.155 63.3053 169.948 62.7852ZM170.901 62.4051C171.027 62.7209 171.217 62.9766 171.472 63.1722C171.726 63.3679 172.012 63.4907 172.329 63.5408C172.65 63.5894 172.966 63.5515 173.278 63.427L176.338 62.2068C176.654 62.0809 176.91 61.8906 177.105 61.636C177.301 61.3814 177.424 61.0956 177.474 60.7785C177.524 60.4614 177.486 60.1449 177.36 59.8291C177.236 59.517 177.045 59.2613 176.789 59.062C176.535 58.8663 176.249 58.7435 175.932 58.6934C175.615 58.6433 175.298 58.6812 174.982 58.8072L171.923 60.0274C171.611 60.1519 171.355 60.3421 171.156 60.5982C170.96 60.8527 170.837 61.1386 170.787 61.4557C170.738 61.7765 170.776 62.093 170.901 62.4051Z" fill="#232323"/>
  <path d="M172.218 68.2416L173.144 67.9878L177.502 70.7465C177.866 70.9767 178.185 71.1092 178.461 71.144C178.742 71.1815 179.013 71.1635 179.275 71.09C179.594 71.0003 179.863 70.846 180.08 70.6272C180.297 70.4084 180.444 70.1508 180.523 69.8545C180.603 69.562 180.598 69.256 180.508 68.9363C180.415 68.6051 180.254 68.3327 180.023 68.119C179.797 67.9042 179.534 67.758 179.233 67.6802C178.934 67.6063 178.633 67.614 178.33 67.7033L178.035 66.6519C178.559 66.5049 179.055 66.4964 179.523 66.6266C179.996 66.7557 180.404 66.9963 180.748 67.3484C181.097 67.7033 181.346 68.1465 181.495 68.6779C181.64 69.194 181.651 69.6896 181.526 70.1649C181.406 70.639 181.175 71.0509 180.833 71.4004C180.495 71.7527 180.071 72.0008 179.558 72.1446C179.196 72.2462 178.87 72.2881 178.578 72.2703C178.287 72.2564 178.002 72.1869 177.722 72.062C177.445 71.936 177.14 71.7662 176.806 71.5526L173.189 69.2589L173.498 69.0287L174.752 73.4941L173.77 73.7698L172.218 68.2416Z" fill="#232323"/>
  <path d="M175.059 80.1473L176.627 79.879L175.956 75.964L176.956 75.7929L183.386 77.5837L183.591 78.7783L177.16 76.9875L177.626 79.708L180.021 79.298L180.203 80.3625L177.808 80.7725L177.96 81.6596L176.961 81.8307L176.809 80.9436L175.242 81.2118L175.059 80.1473Z" fill="#232323"/>
  <path d="M175.996 91.9957C175.988 91.3278 176.118 90.736 176.387 90.2205C176.657 89.705 177.038 89.298 177.53 88.9997C178.026 88.7052 178.61 88.5537 179.282 88.545L184.766 88.4743L184.785 89.5541L179.386 89.6238C178.978 89.629 178.623 89.7016 178.321 89.8415C178.022 89.9854 177.775 90.1726 177.578 90.4032C177.381 90.6337 177.234 90.8856 177.138 91.1589C177.045 91.4361 177.001 91.7107 177.004 91.9827C177.008 92.2587 177.061 92.534 177.165 92.8087C177.268 93.0834 177.42 93.3314 177.618 93.5529C177.821 93.7783 178.076 93.957 178.381 94.0891C178.687 94.2212 179.042 94.2846 179.446 94.2794L184.846 94.2097L184.859 95.2896L179.37 95.3605C178.702 95.3691 178.116 95.2306 177.612 94.9451C177.109 94.6636 176.716 94.2686 176.433 93.7602C176.15 93.2518 176.005 92.6636 175.996 91.9957Z" fill="#232323"/>
  <path d="M176.197 98.3403L180.225 101.764L184.778 99.3489L184.638 100.643L181.05 102.506L184.156 105.087L184.015 106.388L180.085 103.053L175.418 105.528L175.558 104.234L179.255 102.311L176.056 99.6407L176.197 98.3403Z" fill="#232323"/>
  <path d="M182.96 112.314L182.742 113.378L174.739 109.39L174.957 108.326L182.96 112.314Z" fill="#232323"/>
  <path d="M172.527 117.638C172.726 117 173.033 116.478 173.449 116.071C173.865 115.665 174.353 115.396 174.914 115.265C175.477 115.139 176.079 115.176 176.72 115.376L181.956 117.008L181.64 118.041L176.485 116.434C176.095 116.312 175.735 116.271 175.405 116.31C175.077 116.355 174.783 116.456 174.524 116.614C174.265 116.772 174.048 116.966 173.871 117.196C173.698 117.431 173.57 117.678 173.489 117.938C173.407 118.201 173.373 118.48 173.386 118.773C173.399 119.066 173.466 119.349 173.587 119.621C173.71 119.898 173.896 120.147 174.146 120.368C174.396 120.588 174.713 120.758 175.099 120.878L180.254 122.486L179.933 123.517L174.691 121.883C174.054 121.684 173.54 121.371 173.149 120.943C172.758 120.519 172.506 120.022 172.395 119.451C172.284 118.88 172.328 118.276 172.527 117.638Z" fill="#232323"/>
  <path d="M170.413 124.257L178.408 127.532L178.003 128.52L170.008 125.246L170.413 124.257Z" fill="#232323"/>
  <path d="M165.881 133.448C166.179 132.914 166.539 132.483 166.96 132.155C167.38 131.83 167.835 131.621 168.327 131.529C168.819 131.443 169.32 131.486 169.828 131.66L169.441 132.708C168.898 132.565 168.385 132.611 167.901 132.845C167.419 133.084 167.032 133.466 166.74 133.99C166.55 134.328 166.432 134.663 166.385 134.994C166.339 135.331 166.371 135.635 166.48 135.906C166.589 136.178 166.78 136.39 167.053 136.542C167.22 136.636 167.38 136.686 167.532 136.693C167.685 136.706 167.832 136.685 167.973 136.63C168.115 136.581 168.25 136.51 168.38 136.418C168.509 136.325 168.631 136.222 168.746 136.107L170.391 134.503C170.57 134.329 170.762 134.17 170.966 134.027C171.173 133.886 171.391 133.779 171.62 133.705C171.852 133.633 172.095 133.609 172.348 133.631C172.605 133.655 172.873 133.745 173.153 133.901C173.6 134.151 173.916 134.479 174.101 134.885C174.289 135.296 174.355 135.748 174.3 136.24C174.245 136.732 174.077 137.226 173.794 137.724C173.508 138.228 173.165 138.63 172.764 138.928C172.365 139.232 171.929 139.424 171.454 139.502C170.978 139.584 170.485 139.543 169.977 139.378L170.357 138.292C170.694 138.411 171.023 138.441 171.344 138.382C171.667 138.329 171.963 138.201 172.232 137.999C172.504 137.798 172.732 137.538 172.915 137.219C173.09 136.913 173.196 136.608 173.233 136.304C173.271 135.999 173.239 135.723 173.14 135.475C173.044 135.229 172.878 135.04 172.644 134.91C172.414 134.781 172.19 134.743 171.973 134.796C171.759 134.85 171.557 134.95 171.365 135.096C171.176 135.246 171.003 135.4 170.847 135.556L169.632 136.76C169.495 136.898 169.327 137.052 169.127 137.22C168.926 137.392 168.696 137.538 168.436 137.659C168.18 137.781 167.894 137.842 167.579 137.84C167.267 137.84 166.93 137.738 166.567 137.536C166.203 137.333 165.921 137.079 165.72 136.774C165.518 136.473 165.392 136.14 165.344 135.774C165.3 135.41 165.325 135.03 165.418 134.633C165.508 134.234 165.662 133.839 165.881 133.448Z" fill="#232323"/>
  <path d="M162.973 138.841L169.974 143.904L169.348 144.77L166.261 142.537L163.595 146.222L166.682 148.455L166.056 149.32L159.056 144.256L159.682 143.391L162.774 145.627L165.439 141.942L162.347 139.706L162.973 138.841Z" fill="#232323"/>
  <path d="M154.382 149.465C154.967 148.835 155.604 148.43 156.291 148.249C156.978 148.069 157.676 148.093 158.386 148.322C159.094 148.554 159.773 148.973 160.423 149.577C161.073 150.182 161.539 150.829 161.822 151.518C162.102 152.21 162.176 152.905 162.046 153.603C161.915 154.301 161.557 154.965 160.972 155.594C160.383 156.227 159.745 156.634 159.059 156.814C158.372 156.995 157.674 156.969 156.967 156.737C156.26 156.505 155.581 156.087 154.93 155.482C154.28 154.877 153.814 154.23 153.531 153.541C153.249 152.852 153.173 152.159 153.303 151.461C153.434 150.763 153.793 150.097 154.382 149.465ZM155.129 150.159C154.687 150.628 154.427 151.119 154.35 151.631C154.272 152.149 154.353 152.664 154.592 153.176C154.829 153.691 155.199 154.183 155.703 154.651C156.21 155.123 156.727 155.456 157.255 155.652C157.78 155.851 158.296 155.892 158.804 155.775C159.31 155.66 159.783 155.369 160.225 154.9C160.666 154.431 160.926 153.94 161.004 153.428C161.079 152.919 160.998 152.407 160.761 151.892C160.525 151.377 160.154 150.882 159.65 150.408C159.149 149.936 158.635 149.602 158.107 149.406C157.579 149.21 157.061 149.168 156.553 149.28C156.045 149.397 155.57 149.691 155.129 150.159Z" fill="#232323"/>
  <path d="M148.443 155.68L155.809 160.843L154.939 161.543L149.159 157.422L151.948 163.941L151.078 164.65L145.298 160.529L148.091 167.053L147.217 167.757L143.749 159.457L144.582 158.787L150.343 162.846L147.611 156.35L148.443 155.68Z" fill="#232323"/>
  <path d="M139.136 162.804L143.567 170.221L140.636 171.972C140.564 172.015 140.476 172.063 140.372 172.116C140.27 172.172 140.168 172.219 140.065 172.257C139.626 172.435 139.208 172.499 138.809 172.448C138.407 172.399 138.04 172.253 137.708 172.008C137.378 171.768 137.095 171.45 136.859 171.055C136.516 170.481 136.368 169.894 136.415 169.293C136.463 168.696 136.744 168.172 137.258 167.721L137.574 167.455L139.856 166.092L138.219 163.351L139.136 162.804ZM134.721 165.441L137.987 167.585L137.247 168.405L133.671 166.068L134.721 165.441ZM140.376 166.962L138.393 168.147C138.327 168.186 138.256 168.233 138.177 168.29C138.096 168.348 138.022 168.408 137.957 168.47C137.753 168.667 137.62 168.881 137.558 169.114C137.495 169.351 137.488 169.589 137.536 169.826C137.587 170.066 137.673 170.289 137.796 170.495C137.92 170.701 138.074 170.881 138.259 171.036C138.447 171.194 138.661 171.302 138.9 171.359C139.136 171.419 139.388 171.404 139.655 171.314C139.743 171.289 139.831 171.253 139.919 171.205C140.005 171.163 140.081 171.122 140.147 171.083L142.13 169.898L140.376 166.962Z" fill="#232323"/>
  <path d="M131.016 167.503L134.613 175.358L129.649 177.631L129.227 176.71L133.22 174.881L132.094 172.421L128.755 173.949L128.333 173.027L131.671 171.499L130.467 168.869L126.474 170.698L126.052 169.776L131.016 167.503Z" fill="#232323"/>
  <path d="M123.231 170.957L125.994 179.144L120.821 180.889L120.497 179.929L124.658 178.524L123.793 175.96L120.314 177.135L119.989 176.174L123.468 175L122.544 172.259L118.382 173.664L118.058 172.703L123.231 170.957Z" fill="#232323"/>
  <path d="M114.985 173.593L116.956 182.005L115.917 182.249L114.177 174.824L110.274 175.738L110.043 174.751L114.985 173.593Z" fill="#232323"/>
  <path d="M101.937 178.212C102.22 178.187 102.482 178.23 102.725 178.341C102.964 178.452 103.163 178.613 103.322 178.824C103.478 179.039 103.568 179.288 103.593 179.571C103.618 179.854 103.573 180.115 103.458 180.354C103.338 180.593 103.171 180.787 102.955 180.935C102.735 181.087 102.484 181.175 102.201 181.2C101.938 181.223 101.689 181.179 101.455 181.067C101.22 180.96 101.027 180.798 100.876 180.583C100.72 180.367 100.63 180.118 100.605 179.836C100.58 179.553 100.625 179.292 100.74 179.053C100.852 178.818 101.013 178.625 101.225 178.474C101.436 178.322 101.674 178.235 101.937 178.212Z" fill="#232323"/>
  <path d="M89.8289 176.303L91.5628 185.13L90.4511 185.032L89.1384 178.056L86.6324 184.689L85.5142 184.597L84.2016 177.621L81.695 184.26L80.5773 184.162L83.8282 175.775L84.8921 175.868L86.2339 182.787L88.7651 176.21L89.8289 176.303Z" fill="#232323"/>
  <path d="M79.7861 175.244L75.1084 183.062L73.655 182.743L72.6834 173.684L73.7675 173.922L74.6913 182.332L74.3632 182.26L78.702 175.005L79.7861 175.244ZM77.9929 176.92L77.778 177.899L73.3944 176.936L73.6093 175.957L77.9929 176.92Z" fill="#232323"/>
  <path d="M68.6823 172.46L66.2587 179.691L69.052 180.627L68.7297 181.589L62.1306 179.377L62.4528 178.415L65.2461 179.352L67.6697 172.121L68.6823 172.46Z" fill="#232323"/>
  <path d="M59.2246 168.585C60.002 168.953 60.5805 169.437 60.9603 170.037C61.3401 170.637 61.5283 171.31 61.5247 172.056C61.5176 172.801 61.3241 173.575 60.9443 174.377C60.5645 175.18 60.0889 175.82 59.5178 176.298C58.943 176.773 58.3032 177.055 57.5983 177.142C56.8934 177.228 56.1523 177.088 55.3749 176.72C54.471 176.292 53.8367 175.711 53.4718 174.976C53.1034 174.24 52.9928 173.431 53.1401 172.549L54.245 172.754C54.1286 173.411 54.1951 174.004 54.4446 174.534C54.694 175.064 55.1496 175.485 55.8112 175.798C56.3933 176.074 56.9403 176.171 57.452 176.09C57.9638 176.009 58.4294 175.778 58.8488 175.397C59.2664 175.019 59.6251 174.518 59.9247 173.895C60.2226 173.275 60.386 172.681 60.4149 172.115C60.4421 171.553 60.3237 171.046 60.0598 170.593C59.7943 170.144 59.3704 169.782 58.7883 169.507C58.1266 169.194 57.512 169.109 56.9443 169.252C56.3749 169.398 55.8738 169.723 55.4409 170.226L54.5825 169.501C55.1692 168.832 55.8649 168.405 56.6696 168.219C57.469 168.035 58.3207 168.157 59.2246 168.585Z" fill="#232323"/>
  <path d="M52.8693 165.622L48.2236 172.906L47.3231 172.332L49.3718 169.12L45.5372 166.674L43.4886 169.887L42.5881 169.312L47.2338 162.028L48.1343 162.602L46.0824 165.819L49.917 168.265L51.9689 165.047L52.8693 165.622Z" fill="#232323"/>
  <path d="M40.09 156.512L35.0417 162.228L37.2498 164.178L36.5786 164.938L31.3619 160.33L32.0332 159.57L34.2412 161.521L39.2895 155.805L40.09 156.512Z" fill="#232323"/>
  <path d="M35.1232 152.019L28.7005 157.798L27.9861 157.004L30.8184 154.456L27.7763 151.075L24.9441 153.623L24.2297 152.83L30.6524 147.05L31.3668 147.844L28.5301 150.397L31.5722 153.778L34.4089 151.225L35.1232 152.019Z" fill="#232323"/>
  <path d="M28.4756 144.399L21.4436 149.419L18.2713 144.976L19.0965 144.387L21.6484 147.961L23.8508 146.389L21.7172 143.4L22.5425 142.811L24.676 145.8L27.0298 144.119L24.478 140.545L25.3032 139.956L28.4756 144.399Z" fill="#232323"/>
  <path d="M21.9832 134.717L21.127 135.151L16.3042 133.323C15.9016 133.17 15.5618 133.104 15.2848 133.126C15.0024 133.145 14.7403 133.217 14.4985 133.342C14.2033 133.494 13.9715 133.699 13.8028 133.957C13.6342 134.215 13.541 134.497 13.5232 134.803C13.5036 135.105 13.5698 135.404 13.7219 135.699C13.8794 136.005 14.0925 136.24 14.361 136.403C14.626 136.568 14.9133 136.658 15.223 136.674C15.5308 136.686 15.8243 136.618 16.1034 136.47L16.6035 137.441C16.1199 137.69 15.6355 137.798 15.1503 137.764C14.6615 137.733 14.2133 137.579 13.8057 137.303C13.3926 137.025 13.0597 136.641 12.8069 136.15C12.5614 135.674 12.4518 135.19 12.4781 134.7C12.5008 134.211 12.6448 133.761 12.91 133.35C13.1697 132.937 13.5361 132.609 14.009 132.366C14.3433 132.193 14.6551 132.087 14.9444 132.046C15.2319 132.001 15.5254 132.012 15.825 132.078C16.121 132.146 16.4541 132.251 16.8243 132.393L20.8277 133.915L20.5708 134.202L18.4467 130.079L19.3535 129.612L21.9832 134.717Z" fill="#232323"/>
  <path d="M17.1602 124.069C17.3617 124.591 17.4242 125.103 17.3474 125.605C17.2655 126.103 17.0672 126.551 16.7526 126.947C16.4328 127.34 16.0117 127.638 15.4892 127.839L12.5335 128.979C12.0111 129.181 11.4992 129.243 10.998 129.167C10.4953 129.086 10.048 128.888 9.65596 128.572C9.26247 128.252 8.96495 127.831 8.76338 127.308C8.56182 126.786 8.49941 126.274 8.57614 125.773C8.65288 125.272 8.85115 124.824 9.17096 124.431C9.49076 124.037 9.9119 123.74 10.4344 123.538L13.39 122.398C13.9125 122.196 14.4243 122.134 14.9256 122.211C15.423 122.289 15.8704 122.487 16.2676 122.806C16.6611 123.125 16.9586 123.547 17.1602 124.069ZM16.2029 124.438C16.0806 124.121 15.8932 123.863 15.6408 123.665C15.3885 123.466 15.1041 123.34 14.7875 123.287C14.4673 123.234 14.1504 123.269 13.8369 123.39L10.7637 124.575C10.4465 124.698 10.1886 124.885 9.99016 125.137C9.79168 125.39 9.66562 125.674 9.61195 125.991C9.55829 126.307 9.59264 126.624 9.71502 126.941C9.83596 127.255 10.0233 127.513 10.2771 127.715C10.5295 127.913 10.8139 128.039 11.1304 128.093C11.447 128.147 11.7638 128.112 12.0811 127.99L15.1543 126.804C15.4678 126.683 15.7256 126.496 15.9278 126.242C16.1263 125.99 16.2523 125.705 16.306 125.389C16.3582 125.069 16.3239 124.752 16.2029 124.438Z" fill="#232323"/>
  <path d="M14.9485 118.577L14.0198 118.82L9.69355 116.012C9.33242 115.778 9.01423 115.642 8.73898 115.604C8.45883 115.563 8.1874 115.578 7.92471 115.649C7.60407 115.735 7.33404 115.886 7.11462 116.102C6.89521 116.318 6.7444 116.574 6.66219 116.87C6.57895 117.161 6.58038 117.467 6.66648 117.788C6.75568 118.12 6.91423 118.394 7.14212 118.611C7.36614 118.828 7.6278 118.977 7.92708 119.059C8.22533 119.136 8.52653 119.132 8.83069 119.046L9.11386 120.1C8.58847 120.242 8.09222 120.244 7.6251 120.109C7.15412 119.974 6.74865 119.729 6.4087 119.373C6.06385 119.014 5.81985 118.568 5.6767 118.035C5.53771 117.517 5.53299 117.022 5.66255 116.548C5.78825 116.075 6.02422 115.666 6.37044 115.32C6.71176 114.972 7.13932 114.729 7.65312 114.591C8.01626 114.493 8.34355 114.455 8.63501 114.476C8.92542 114.494 9.21001 114.566 9.48876 114.694C9.76365 114.823 10.067 114.997 10.3987 115.214L13.989 117.549L13.6771 117.776L12.4744 113.296L13.4595 113.032L14.9485 118.577Z" fill="#232323"/>
  <path d="M12.2451 106.654L10.675 106.905L11.3013 110.827L10.3 110.987L3.89011 109.124L3.69901 107.927L10.1089 109.79L9.67369 107.065L7.27409 107.448L7.1038 106.381L9.50341 105.998L9.3615 105.109L10.3628 104.949L10.5047 105.838L12.0748 105.587L12.2451 106.654Z" fill="#232323"/>
  <path d="M11.4393 94.7678C11.4404 95.4358 11.3034 96.026 11.0282 96.5385C10.753 97.0509 10.3677 97.4536 9.87218 97.7464C9.37264 98.0352 8.78688 98.1801 8.11488 98.1812L2.63089 98.1901L2.62313 97.1101L8.02313 97.1014C8.43113 97.1007 8.78702 97.0321 9.09079 96.8956C9.39057 96.7551 9.64027 96.5707 9.8399 96.3424C10.0395 96.1141 10.1891 95.8638 10.2887 95.5917C10.3842 95.3155 10.4318 95.0414 10.4313 94.7694C10.4309 94.4934 10.3805 94.2175 10.28 93.9417C10.1796 93.6659 10.0312 93.4161 9.83479 93.1924C9.63442 92.9647 9.38212 92.7831 9.0779 92.6476C8.77368 92.5121 8.41957 92.4447 8.01558 92.4454L2.61558 92.4541L2.61383 91.3741L8.10382 91.3652C8.77182 91.3641 9.35606 91.5092 9.85653 91.8004C10.357 92.0876 10.7456 92.4869 11.0225 92.9985C11.2993 93.51 11.4383 94.0998 11.4393 94.7678Z" fill="#232323"/>
  <path d="M11.3091 88.4414L7.31935 84.9724L2.73972 87.3366L2.89455 86.0438L6.50279 84.222L3.42608 81.6056L3.58162 80.3068L7.47346 83.6856L12.1689 81.2627L12.0141 82.5555L8.29598 84.4367L11.4647 87.1427L11.3091 88.4414Z" fill="#232323"/>
  <path d="M4.70717 74.3774L4.93695 73.3159L12.8939 77.3959L12.6641 78.4573L4.70717 74.3774Z" fill="#232323"/>
  <path d="M15.1969 69.1847C14.9908 69.8201 14.6775 70.3388 14.2571 70.7407C13.8366 71.1425 13.3454 71.4058 12.7835 71.5306C12.219 71.6503 11.6172 71.6065 10.9779 71.3991L5.76145 69.7073L6.08894 68.6781L11.2255 70.3441C11.6136 70.4699 11.9732 70.5151 12.3044 70.4795C12.6329 70.4389 12.9275 70.341 13.1881 70.1858C13.4487 70.0306 13.6685 69.8391 13.8475 69.6112C14.024 69.3783 14.1542 69.1325 14.2381 68.8737C14.3232 68.6112 14.3608 68.3332 14.3509 68.0399C14.3409 67.7465 14.2772 67.463 14.1599 67.1895C14.04 66.9109 13.8564 66.66 13.6092 66.4369C13.362 66.2137 13.0462 66.0398 12.662 65.9152L7.52536 64.2492L7.85855 63.2219L13.0808 64.9156C13.7162 65.1217 14.2266 65.4408 14.6122 65.8728C14.9989 66.301 15.2446 66.8012 15.3492 67.3733C15.4538 67.9455 15.403 68.5493 15.1969 69.1847Z" fill="#232323"/>
  <path d="M17.3834 62.5971L9.42532 59.2327L9.84119 58.249L17.7993 61.6134L17.3834 62.5971Z" fill="#232323"/>
  <path d="M22.0221 53.4511C21.7177 53.982 21.3529 54.4092 20.9277 54.7325C20.5045 55.0524 20.0468 55.2556 19.5545 55.3422C19.0607 55.4234 18.5609 55.3743 18.0551 55.1949L18.4533 54.1506C18.9949 54.2998 19.5087 54.2601 19.9947 54.0316C20.4793 53.7976 20.8708 53.4204 21.1693 52.8999C21.3623 52.5633 21.4843 52.2298 21.5354 51.8995C21.585 51.5637 21.5567 51.2592 21.4504 50.9862C21.3442 50.7132 21.1557 50.499 20.885 50.3439C20.7185 50.2483 20.5593 50.1963 20.4075 50.1876C20.2542 50.1735 20.1071 50.1929 19.9661 50.2458C19.8236 50.2932 19.6871 50.3624 19.5565 50.4535C19.4258 50.5446 19.3026 50.6469 19.1869 50.7603L17.5242 52.3453C17.3424 52.5177 17.1489 52.6742 16.9438 52.8148C16.7352 52.9534 16.516 53.0583 16.2862 53.1294C16.0529 53.1985 15.8098 53.2204 15.5568 53.1953C15.3003 53.1681 15.0333 53.0749 14.7557 52.9158C14.3115 52.6611 13.9989 52.3297 13.8179 51.9216C13.6355 51.508 13.5744 51.0557 13.6346 50.5646C13.6949 50.0735 13.869 49.5809 14.157 49.0867C14.449 48.5855 14.7969 48.1879 15.2006 47.8937C15.603 47.5942 16.0418 47.4078 16.5172 47.3345C16.9946 47.2578 17.4865 47.3047 17.9928 47.4751L17.6005 48.5574C17.2653 48.4343 16.9366 48.4004 16.6146 48.4555C16.291 48.5051 15.9936 48.6297 15.7225 48.8292C15.4478 49.0268 15.2172 49.2842 15.0307 49.6014C14.8521 49.9048 14.7425 50.2085 14.7019 50.5126C14.6613 50.8167 14.6894 51.0933 14.7863 51.3425C14.8797 51.5898 15.0426 51.78 15.2751 51.9133C15.5041 52.0446 15.7276 52.0852 15.9455 52.0349C16.1599 51.9826 16.3634 51.8849 16.5561 51.7418C16.7474 51.5932 16.9217 51.4419 17.0792 51.2879L18.3082 50.0974C18.4468 49.9602 18.6167 49.8087 18.8179 49.6427C19.0211 49.4734 19.2532 49.3298 19.5144 49.2121C19.7721 49.0924 20.0584 49.0353 20.3734 49.0407C20.685 49.0442 21.0212 49.1493 21.3821 49.3563C21.743 49.5632 22.0222 49.8201 22.2197 50.127C22.4192 50.4305 22.5408 50.7653 22.5844 51.1315C22.6245 51.4957 22.5957 51.8757 22.4979 52.2715C22.4035 52.6693 22.2449 53.0625 22.0221 53.4511Z" fill="#232323"/>
  <path d="M24.9916 48.0901L18.0484 42.9481L18.684 42.0898L21.7458 44.3573L24.4525 40.7024L21.3907 38.4349L22.0263 37.5767L28.9696 42.7187L28.334 43.577L25.2674 41.3059L22.5606 44.9608L25.6272 47.2318L24.9916 48.0901Z" fill="#232323"/>
  <path d="M33.7004 37.5647C33.1076 38.1878 32.4668 38.5858 31.7779 38.7586C31.089 38.9314 30.3908 38.8993 29.6832 38.6623C28.9784 38.4224 28.3043 37.9964 27.6609 37.3844C27.0176 36.7723 26.5585 36.1203 26.2838 35.4283C26.0118 34.7334 25.9449 34.0377 26.0832 33.3411C26.2214 32.6444 26.5869 31.9846 27.1796 31.3615C27.7752 30.7355 28.4174 30.3361 29.1062 30.1633C29.7951 29.9905 30.4919 30.024 31.1968 30.2639C31.9016 30.5038 32.5757 30.9298 33.2191 31.5418C33.8624 32.1539 34.3215 32.8059 34.5962 33.4979C34.871 34.1899 34.9392 34.8842 34.801 35.5808C34.6627 36.2774 34.2959 36.9387 33.7004 37.5647ZM32.9613 36.8617C33.4081 36.3979 33.6732 35.9103 33.7567 35.3989C33.84 34.8819 33.7648 34.366 33.5313 33.8512C33.3005 33.3336 32.9359 32.8376 32.4374 32.3634C31.9361 31.8865 31.4226 31.547 30.8969 31.3451C30.3741 31.1403 29.858 31.0938 29.3487 31.2055C28.8421 31.3143 28.3654 31.6007 27.9187 32.0645C27.4719 32.5283 27.2068 33.0159 27.1233 33.5273C27.0427 34.0358 27.1177 34.5488 27.3485 35.0665C27.5792 35.5842 27.9439 36.0829 28.4426 36.5628C28.9383 37.0399 29.4489 37.3794 29.9746 37.5813C30.5002 37.7832 31.0177 37.8311 31.5272 37.7251C32.0365 37.6133 32.5146 37.3255 32.9613 36.8617Z" fill="#232323"/>
  <path d="M39.7096 31.4157L32.4022 26.1705L33.2795 25.4807L39.013 29.666L36.297 23.1155L37.1753 22.4173L42.9088 26.6025L40.1891 20.0474L41.0711 19.3538L44.4449 27.6921L43.6054 28.3523L37.8901 24.229L40.5491 30.7555L39.7096 31.4157Z" fill="#232323"/>
  <path d="M49.0941 24.3982L44.7473 16.9313L47.6977 15.2137C47.7703 15.1714 47.8588 15.1246 47.963 15.0731C48.0653 15.0182 48.1681 14.9723 48.2715 14.9352C48.7122 14.762 49.1315 14.703 49.5294 14.7584C49.9307 14.8117 50.2961 14.9624 50.6255 15.2103C50.953 15.4547 51.2324 15.7757 51.4638 16.1733C51.7999 16.7506 51.9413 17.3393 51.8881 17.9396C51.8329 18.5365 51.5461 19.0575 51.0277 19.5027L50.7083 19.765L48.4112 21.1023L50.0171 23.8609L49.0941 24.3982ZM53.5379 21.8113L50.2964 19.6299L51.046 18.8186L54.5957 21.1955L53.5379 21.8113ZM47.901 20.226L49.8974 19.0638C49.9631 19.0256 50.0354 18.9788 50.1143 18.9236C50.1967 18.8664 50.2709 18.807 50.3369 18.7455C50.5432 18.5513 50.6785 18.3383 50.7426 18.1066C50.8082 17.8694 50.8182 17.6322 50.7726 17.3949C50.725 17.1541 50.6408 16.9301 50.5201 16.7226C50.3994 16.5152 50.2471 16.3331 50.0632 16.1763C49.8774 16.0161 49.6651 15.9059 49.4265 15.8458C49.1913 15.7837 48.9393 15.7961 48.6706 15.8831C48.5825 15.9067 48.4942 15.9419 48.4058 15.9887C48.3188 16.0301 48.2425 16.0699 48.1768 16.1081L46.1804 17.2703L47.901 20.226Z" fill="#232323"/>
  <path d="M57.2721 19.788L53.7649 11.8919L58.7548 9.67555L59.1664 10.6022L55.1525 12.3851L56.251 14.8581L59.6068 13.3675L60.0184 14.2942L56.6626 15.7848L57.8365 18.4278L61.8504 16.645L62.262 17.5717L57.2721 19.788Z" fill="#232323"/>
  <path d="M65.0894 16.425L62.4198 8.20775L67.6126 6.52068L67.9259 7.48506L63.7488 8.84213L64.585 11.4157L68.0773 10.2811L68.3906 11.2455L64.8983 12.3801L65.7919 15.1306L69.9689 13.7735L70.2823 14.7379L65.0894 16.425Z" fill="#232323"/>
  <path d="M73.3762 13.8803L71.5013 5.44615L72.5439 5.21439L74.1988 12.6587L78.1112 11.7889L78.3313 12.7788L73.3762 13.8803Z" fill="#232323"/>
  <path d="M86.4698 9.41143C86.1866 9.43329 85.9243 9.38734 85.6828 9.27359C85.4453 9.15954 85.2482 8.99623 85.0914 8.78367C84.9382 8.56681 84.8507 8.31681 84.8289 8.03365C84.807 7.75049 84.8551 7.49002 84.9731 7.25223C85.0952 7.01413 85.2649 6.82249 85.4824 6.67732C85.7035 6.52785 85.9557 6.44219 86.2388 6.42033C86.5021 6.4 86.7504 6.44703 86.9839 6.56139C87.2171 6.67177 87.4083 6.83554 87.5574 7.0527C87.7106 7.26956 87.7981 7.51956 87.82 7.80272C87.8418 8.08588 87.7937 8.34635 87.6757 8.58415C87.5613 8.81764 87.3975 9.00882 87.1844 9.15767C86.9712 9.30652 86.733 9.3911 86.4698 9.41143Z" fill="#232323"/>
</svg>
