<?xml version="1.0" encoding="UTF-8"?>
<svg width="20px" height="21px" viewBox="0 0 20 21" version="1.1" xmlns="http://www.w3.org/2000/svg" xmlns:xlink="http://www.w3.org/1999/xlink">
    <!-- Generator: Sketch 62 (91390) - https://sketch.com -->
    <title>dribble copy</title>
    <desc>Created with Sketch.</desc>
    <g id="Portfolio" stroke="none" stroke-width="1" fill="none" fill-rule="evenodd">
        <g id="Desktop" transform="translate(-1317.000000, -1790.000000)" fill="#EFF3F2" fill-rule="nonzero" stroke="#EFF3F2" stroke-width="0.5">
            <g id="about" transform="translate(90.000000, 1755.000000)">
                <g id="social" transform="translate(1227.000000, 0.000000)">
                    <path d="M19.75,45.3333333 C19.75,48.0174877 18.6544113,50.4549096 16.8879707,52.2213503 C15.1215929,53.987728 12.6842489,55.0833333 10,55.0833333 C7.31584563,55.0833333 4.87842372,53.9877447 3.11198303,52.221304 C1.34560529,50.4549263 0.25,48.0175823 0.25,45.3333333 C0.25,42.649179 1.34558865,40.2117571 3.11202934,38.4453164 C4.87840708,36.6789386 7.31575105,35.5833333 10,35.5833333 C12.6841544,35.5833333 15.1215763,36.678922 16.888017,38.4453627 C18.6543947,40.2117404 19.75,42.6490844 19.75,45.3333333 Z M8.56148084,47.3473657 C9.44346608,46.8223287 10.3827833,46.3811672 11.4979275,45.7126962 C11.1906788,44.8769326 10.8424089,44.0612852 10.1518767,43.1409299 C7.66507583,43.9644533 5.13276225,44.3989583 2.87851563,44.3989583 C2.3098583,44.3989583 1.75965304,44.3709375 0.956784882,44.5423103 C0.934298948,44.8029062 0.921875,45.0667151 0.921875,45.3333333 C0.921875,47.94065 2.02715616,50.2945971 4.19621439,51.8633989 C4.84640194,50.2558426 6.42096129,48.621702 8.56148084,47.3473657 Z M10,54.4114583 C11.0380411,54.4114583 12.0354992,54.2358658 13.1327986,53.6632578 C12.9983821,51.303282 12.5749379,49.0107326 11.5612996,46.6792622 C10.5791448,47.0315353 9.67687233,47.4649332 8.90521365,47.9248307 C6.6833094,49.2474982 5.14599398,50.9346653 4.78334102,52.7587876 C6.26044367,53.7996288 8.06011865,54.4114583 10,54.4114583 Z M14.1405804,53.4110873 C16.7651865,52.0602225 18.6495647,49.4667927 18.8280126,46.1421251 C16.7857072,45.6122987 14.6317897,45.7880294 12.5204588,46.6383432 C13.1953258,48.7500613 13.6157361,50.9485208 14.1405804,53.4110873 Z M16.1339095,38.6468246 C14.5170801,37.162555 12.3627579,36.2552083 10,36.2552083 C9.02864094,36.2552083 8.09223989,36.4091061 7.10523043,37.0982734 C8.44819005,38.5897631 9.61044466,40.2483949 10.8876736,42.1690183 C13.7606802,41.0931418 15.5389917,39.8344849 16.1339095,38.6468246 Z M16.5891536,39.5310907 C15.555806,40.7968363 13.3103917,41.9629884 11.1091309,43.0937535 C11.3011123,43.4924246 11.4845836,43.8968993 11.6583733,44.3083434 C11.8287039,44.7117172 11.9889756,45.118988 12.4419864,45.6842391 C12.8923204,45.5582071 13.3453414,45.4532962 13.7983655,45.3706837 C15.5326693,45.0545206 17.235721,45.0774508 19.0761411,45.1887836 C19.0423977,43.0396539 18.2587024,41.069266 16.5891536,39.5310907 Z M9.90319595,42.203375 C8.91307372,40.3975562 7.71097664,38.725958 6.02093567,37.1752028 C3.57833663,38.3709958 1.74892323,40.6321655 1.35928378,43.6527344 C3.81755524,43.9046114 6.80767067,43.5172471 9.90319595,42.203375 Z" id="dribble-copy"></path>
                </g>
            </g>
        </g>
    </g>
</svg>