<svg width="60" height="60" fill="none" xmlns="http://www.w3.org/2000/svg"><g clip-path="url(#a)"><path d="M30 0C13.432 0 0 13.432 0 30c0 16.568 13.432 30 30 30 16.568 0 30-13.432 30-30C60 13.432 46.568 0 30 0zm0 1.95c15.49 0 28.047 12.558 28.047 28.05 0 15.49-12.554 28.047-28.047 28.047C14.508 58.047 1.953 45.49 1.953 30S14.51 1.95 30 1.95zm-1.695 1.575c-.825.035-1.65.105-2.48.195l-.267 7.36c.588-.1 1.18-.178 1.774-.235l.175-4.97-.032-.343.107.325 1.66 3.723h1.515l1.66-3.72.1-.328-.025.343.175 4.97c.58.055 1.183.135 1.776.235l-.273-7.36a36.864 36.864 0 0 0-2.48-.195l-1.633 4.063-.057.3-.058-.3-1.637-4.063zm16.74 4.56-3.858 6.07c.488.375 1.13.928 1.543 1.305l3.633-1.885.23-.172-.173.234-1.88 3.633a25.92 25.92 0 0 1 1.325 1.575l6.075-3.86a40.358 40.358 0 0 0-1.15-1.42L46.943 16.1l-.263.23.195-.287 1.7-3.39-1.2-1.2-3.39 1.7-.288.194.228-.264 2.545-3.848c-.45-.38-.877-.727-1.425-1.15zM13.75 9.462c-.9.093-1.595.708-3.482 2.813a47.414 47.414 0 0 0-1.893 2.285l5.185 4.917c1.717-1.9 2.415-2.605 3.77-4.032.958-1.013 1.5-2.175.54-3.293-.52-.604-1.395-.737-2.125-.437l-.07.025.025-.065a1.75 1.75 0 0 0-.607-1.835 1.81 1.81 0 0 0-1.343-.377zM13.765 11c.34-.092.692.15.77.5.08.35-.14.68-.385.955-.55.625-2.578 2.745-2.578 2.745l-1.004-.957c1.042-1.276 2.152-2.436 2.655-2.896.15-.157.336-.276.542-.347zM30 12.207a17.785 17.785 0 0 0-17.7 15.97v.006a17.805 17.805 0 0 0 21.29 19.242 17.78 17.78 0 0 0 8.984-29.998A17.805 17.805 0 0 0 30 12.213v-.005zm-13.843.605c.118 0 .24.033.35.108.22.148.32.4.265.65-.064.297-.312.578-.512.795l-2.613 2.8-1.05-1s1.968-2.08 2.613-2.747c.255-.265.42-.425.595-.513a.838.838 0 0 1 .352-.092zM30 14.546A15.437 15.437 0 0 1 45.455 30H30v15.455A15.437 15.437 0 0 1 14.545 30H30V14.545z" fill="#232323"/></g><defs><clipPath id="a"><path fill="#fff" d="M0 0h60v60H0z"/></clipPath></defs></svg>