<svg width="120" height="22" fill="none" xmlns="http://www.w3.org/2000/svg"><g clip-path="url(#a)" fill-rule="evenodd" clip-rule="evenodd" fill="#232323"><path opacity=".988" d="M22.684.707c.938-.012 1.876.005 2.813.05.121.02.227.07.318.151.125.314.253.627.385.938a.806.806 0 0 1 0 .15c.225.542.437 1.089.636 1.641.19.614.414 1.24.67 1.875a9.615 9.615 0 0 1-.034.033c.253.626.476 1.251.67 1.875a1358.14 1358.14 0 0 1 1.875 5.174.805.805 0 0 1 0 .15c.232.577.456 1.157.67 1.741a5.29 5.29 0 0 1-.034.034c.442 1.225.894 2.458 1.356 3.7a10.516 10.516 0 0 0 1.992 3.013c-1.607.039-3.214.044-4.821.017a1.445 1.445 0 0 1-.335-.402 12.66 12.66 0 0 0-.603-1.842.34.34 0 0 0 0-.167c-.07-.01-.08-.039-.033-.084a14.722 14.722 0 0 1-.636-1.808 25.28 25.28 0 0 1-.72-2.009c-.117-.272-.235-.53-.352-.77a.346.346 0 0 0-.134-.05 154.29 154.29 0 0 0-6.26-.034.837.837 0 0 0-.302.402 793.678 793.678 0 0 0-2.177 6.78 39.812 39.812 0 0 1-2.712-.05l-.067-.067c.16-.281.355-.532.586-.753a20.78 20.78 0 0 0 1.323-2.528v-.134c.21-.586.433-1.166.67-1.741a.806.806 0 0 1 0-.15c1.519-4.287 3.014-8.534 4.486-12.74a.132.132 0 0 1-.033-.068 2.26 2.26 0 0 0-.184-1.557 4.574 4.574 0 0 1-.386-.636.214.214 0 0 1 .168-.083c.407-.006.81-.023 1.205-.05zm.469 4.119c.693 1.864 1.374 3.7 2.042 5.507.064.225.147.454.252.687.174.54.358 1.076.552 1.607-1.853.006-3.705 0-5.558-.017.933-2.56 1.837-5.155 2.712-7.784z"/><path opacity=".987" d="M35.776.707c1.043.01 2.092.027 3.147.05.142.064.276.142.402.235.171.205.356.4.552.586 3.068 4.641 6.126 9.24 9.174 13.795.017-4.866.023-9.733.017-14.599.715-.005 1.429 0 2.143.017a.213.213 0 0 1 .167.084 7.254 7.254 0 0 0-.368 1.573c-.05 1.19-.084 2.379-.1 3.566.015.105.026.21.033.318-.028 5.019-.05 9.996-.067 14.933-.68.006-1.362 0-2.042-.016a.675.675 0 0 0-.134-.118A3766.303 3766.303 0 0 1 38.337 5.562c-.017 5.234-.022 10.469-.017 15.703-.792.006-1.585 0-2.377-.016a.122.122 0 0 1-.067-.067l.603-2.478c-.003-4.372-.003-8.758 0-13.159a39.56 39.56 0 0 1-.05-1.623 4.025 4.025 0 0 0-.586-2.227l.033-.033a36.809 36.809 0 0 0-.57-.888c.162-.022.318-.044.47-.067z"/><path opacity=".988" d="M87.74.707a53.05 53.05 0 0 1 3.114.05c.29.054.542.182.753.386l.57.703c2.978 4.502 5.947 8.977 8.905 13.426.008-.214.024-.426.051-.636-.002-4.583-.002-9.204 0-13.862.782-.008 1.563.003 2.343.034-.078.331-.168.66-.267.987a.128.128 0 0 0 .033.067 4.8 4.8 0 0 0-.151.687 85.8 85.8 0 0 0-.083 1.674l.033.067-.067 8.086c.003 2.923.003 5.886 0 8.89a287.54 287.54 0 0 0-1.992 0 1.159 1.159 0 0 1-.201-.168A3135.624 3135.624 0 0 1 90.502 5.663a416.33 416.33 0 0 1-.05 5.256c.008.108.02.214.033.318-.08.024-.08.057 0 .1-.067.06-.067.105 0 .135a.621.621 0 0 0 0 .402l-.067.033c.034 3.117.045 6.236.034 9.358h-2.528a.15.15 0 0 1-.05-.067 6.791 6.791 0 0 0 .653-2.913c.015-4.849.02-9.665.016-14.447a4.4 4.4 0 0 0-.569-2.11l.034-.033c-.22-.293-.422-.6-.603-.92.117-.023.228-.045.335-.068z"/><path opacity=".99" d="M1.155.74c2.4-.005 4.8 0 7.199.018.466.005.93.033 1.39.083L9.91.808a8.265 8.265 0 0 1 3.365 1.456c.502.452.954.948 1.356 1.49 1.05 1.691 1.323 3.505.82 5.441-.768 2.197-2.28 3.664-4.537 4.403a7.468 7.468 0 0 1-2.092.435.122.122 0 0 1-.05-.033l-1.976.067c-.706-.002-1.426-.002-2.16 0 .03 1.711.069 3.43.117 5.156a7.21 7.21 0 0 0 .452 1.64.12.12 0 0 1-.033.05l.1.135a.754.754 0 0 0-.016.15 2.886 2.886 0 0 1-.419.05c-1.496.024-2.991.018-4.486-.016.01-.116.038-.227.083-.335.186-.345.325-.708.419-1.088a.46.46 0 0 0-.034-.168l.067-.066a976.33 976.33 0 0 0 0-15.77c.082-.016.087-.044.017-.084-.01-.369-.027-.737-.05-1.105a.779.779 0 0 1 .033-.218L.82 2.331a1.192 1.192 0 0 0-.083-.586A5.746 5.746 0 0 1 .352.808L1.155.74zm8.337 1.641c.887.342 1.618.9 2.193 1.675.942 1.328 1.232 2.79.87 4.386-.413 1.665-1.367 2.931-2.862 3.8-.393.19-.806.313-1.239.368-1.26.04-2.522.067-3.783.084V2.114c1.35.01 2.701.037 4.051.083.125.003.242.03.352.084a.132.132 0 0 1 .067-.033c.124.035.241.08.351.133z"/><path opacity=".994" d="M54.157.774h14.8c.009.749-.002 1.496-.034 2.243a2.19 2.19 0 0 1-.536-.318 4.87 4.87 0 0 0-1.942-.552c-1.023.002-2.05.002-3.08 0 .002 4.636.002 9.234 0 13.795.028 1.114.045 2.23.05 3.348.094.39.211.758.352 1.105a.118.118 0 0 1-.034.05c.12.236.22.481.302.736a.115.115 0 0 1-.05.084c-1.443.002-2.889-.003-4.337-.017l-.435-.033a.121.121 0 0 1-.067-.067c.167-.705.35-1.425.553-2.16.005-1.358.022-2.714.05-4.068-.002-4.217-.002-8.475 0-12.773a67.42 67.42 0 0 0-3.55.05c-.715.146-1.379.43-1.991.854a26.006 26.006 0 0 1-.05-2.277z"/><path opacity=".992" d="M72.238.774h12.254c.006.782-.005 1.563-.033 2.344a4.584 4.584 0 0 0-2.076-.92 381.241 381.241 0 0 0-6.395-.085v7.735h6.428v1.44h-6.428v8.604c2.12.015 4.241-.002 6.361-.05a5.353 5.353 0 0 0 2.16-.854.13.13 0 0 1 .067.034c.017.748.022 1.495.017 2.243-3.706.006-7.41 0-11.116-.017a53.41 53.41 0 0 1-1.608-.05c.162-.756.346-1.515.553-2.276.022-5.112.022-10.224 0-15.335a6.843 6.843 0 0 0-.352-1.859.122.122 0 0 0 .034-.05l-.335-.837.469-.067zM106.825.774h12.756c.006.703 0 1.407-.016 2.11a.897.897 0 0 1-.051.234 4.157 4.157 0 0 0-2.075-.92 360.159 360.159 0 0 0-6.329-.085v7.735h6.396v1.44h-6.396c-.016 2.846.001 5.692.051 8.538l.05.05 2.997.016a89.394 89.394 0 0 0 3.364-.05 5.026 5.026 0 0 0 2.009-.854c.034.76.045 1.518.034 2.277-3.449.006-6.897 0-10.346-.017a88.951 88.951 0 0 1-2.277-.05c.145-.808.318-1.612.519-2.41.028-4.456.044-8.847.05-13.176a76.006 76.006 0 0 1-.05-2.193 8 8 0 0 0-.686-2.645z"/></g><defs><clipPath id="a"><path fill="#fff" transform="translate(0 .286)" d="M0 0h120v21.429H0z"/></clipPath></defs></svg>