<svg width="60" height="70" fill="none" xmlns="http://www.w3.org/2000/svg"><g clip-path="url(#a)" fill="#232323"><path d="M44.996 46.408h-.927V24.416H15.93v21.992h-.927V4.45h.927v19.038H44.07V4.451h.927v41.957zm2.352 4.532h6.97v-.858h-.464a3.906 3.906 0 0 1-2.129-.67 3.434 3.434 0 0 1-1.442-2.901V4.905a3.288 3.288 0 0 1 1.442-2.738 3.991 3.991 0 0 1 2.13-.643h.463V.665H34.773v.859h.463a3.992 3.992 0 0 1 2.129.67 3.296 3.296 0 0 1 1.442 2.763v13.614h-17.57V4.957a3.296 3.296 0 0 1 1.441-2.747 3.957 3.957 0 0 1 2.112-.686h.463V.665H5.717v.859h.463a3.957 3.957 0 0 1 2.12.67A3.288 3.288 0 0 1 9.743 4.93V46.545a3.434 3.434 0 0 1-1.451 2.901 3.87 3.87 0 0 1-2.12.67h-.455v.858h19.536v-.858h-.463a3.87 3.87 0 0 1-2.12-.67 3.254 3.254 0 0 1-1.443-2.626V29.386h17.58v17.425a3.245 3.245 0 0 1-1.434 2.627c-.63.425-1.368.66-2.128.678h-.464v.858l12.567-.034zM.189 58.94h2.206v3.948h4.077V58.94h2.206v10.206H6.472V64.99H2.395v4.155H.189V58.94zM12.807 58.94v10.206h-2.198V58.94h2.198zM16.198 65.824a2.138 2.138 0 0 0 1.965 1.45c.713 0 1.314-.36 1.314-1.012 0-.498-.335-.859-1.065-1.099l-1.244-.438c-1.486-.54-2.438-1.442-2.438-2.918a3.072 3.072 0 0 1 3.339-3.065 3.76 3.76 0 0 1 3.476 2.207l-1.802 1.047a1.82 1.82 0 0 0-1.606-1.245c-.678 0-1.141.36-1.141.858s.369.773.995 1.005l1.322.515c1.64.61 2.421 1.545 2.421 2.918 0 2.035-1.717 3.22-3.597 3.22a3.99 3.99 0 0 1-3.828-2.507l1.889-.936zM22.61 58.94h7.579v2.034h-2.721v8.172h-2.163v-8.172h-2.696V58.94zM36.052 69.335a5.296 5.296 0 1 1 .086-10.592 5.296 5.296 0 0 1-.086 10.592zm0-8.455a3.168 3.168 0 1 0 3.09 3.159 3.099 3.099 0 0 0-3.09-3.16zM44.996 69.146h-2.172V58.94h3.434c2.206 0 3.733 1.176 3.733 3.262a3.064 3.064 0 0 1-2.094 2.944l2.747 4h-2.575l-2.49-3.734h-.583v3.734zm0-5.545h1.236a1.365 1.365 0 0 0 1.4-1.912 1.348 1.348 0 0 0-1.4-.783h-1.236V63.6zM56.197 69.146h-2.206v-4.438l-3.648-5.768h2.515l2.258 3.734 2.257-3.734h2.464l-3.64 5.768v4.438zM60 55.395H0v-.918h60v.918z"/></g><defs><clipPath id="a"><path fill="#fff" transform="translate(0 .665)" d="M0 0h60v68.669H0z"/></clipPath></defs></svg>