<svg width="21" height="21" viewBox="0 0 21 21" fill="none" xmlns="http://www.w3.org/2000/svg">
  <path fill-rule="evenodd" clip-rule="evenodd" d="M0.5 10.6771C0.5 5.15805 4.97584 0.678955 10.5 0.678955C16.0246 0.678955 20.5 5.16208 20.5 10.6808C20.5 16.1999 16.0242 20.679 10.5 20.679H9.68884V20.6429C4.54747 20.2297 0.5 15.9235 0.5 10.6771ZM10.7487 19.0533C15.2614 18.9218 18.8777 15.2214 18.8777 10.6808C18.8777 6.05661 15.1273 2.30095 10.5 2.30095C5.87225 2.30095 2.12229 6.05342 2.12229 10.6771C2.12229 15.3007 5.87566 19.0533 10.5 19.0533H10.7487Z" fill="#A6A6A6"/>
  <path fill-rule="evenodd" clip-rule="evenodd" d="M6.45137 3.35096C6.34016 3.31596 6.22487 3.27967 6.10475 3.23893L6.626 1.70293C6.67388 1.71918 6.76009 1.74667 6.86075 1.77877C7.04159 1.83643 7.26903 1.90896 7.4045 1.95781L7.41178 1.96043L7.419 1.96319C7.45606 1.97736 7.49578 1.99238 7.53744 2.00814C7.74728 2.0875 8.00619 2.18541 8.22241 2.28654L8.23203 2.29103L8.27488 2.31245C8.37663 2.35989 8.52944 2.43272 8.65672 2.49338C8.72816 2.52744 8.79156 2.55766 8.83337 2.5774L8.85272 2.58653L8.87156 2.59668C8.87594 2.59904 8.88109 2.60179 8.88691 2.6049C8.93075 2.62838 9.01253 2.67214 9.091 2.72008L9.11253 2.73324L9.11862 2.7375C9.12747 2.74265 9.13959 2.74953 9.15459 2.75787C9.16769 2.76517 9.18028 2.7721 9.19287 2.77903C9.19534 2.78039 9.19781 2.78175 9.20028 2.78311C9.20722 2.78693 9.21512 2.79128 9.22219 2.79523L9.22269 2.79551C9.22628 2.79751 9.23547 2.80263 9.24606 2.80881C9.25563 2.81432 9.27038 2.82273 9.28881 2.83326C9.34522 2.86545 9.43638 2.91747 9.521 2.96703C9.60819 3.01808 9.74125 3.09672 9.83972 3.16574C9.94522 3.23053 10.0612 3.31086 10.1384 3.36434C10.1523 3.37398 10.165 3.38275 10.1761 3.39039C10.2354 3.42654 10.2936 3.46754 10.334 3.49652C10.3919 3.53799 10.4549 3.58497 10.5123 3.62816C10.5389 3.64811 10.5631 3.66642 10.586 3.68372C10.6165 3.70673 10.6447 3.72797 10.6727 3.74894C10.6958 3.76626 10.7151 3.78053 10.7307 3.79184C10.7383 3.79742 10.7443 3.80171 10.7488 3.80489C10.7527 3.80761 10.7546 3.80889 10.7546 3.80889L10.7757 3.82299L10.7961 3.83849C11.6913 4.52046 12.4886 5.32167 13.1691 6.21467L13.1697 6.21549L13.1703 6.21633C13.9226 7.2088 14.5165 8.31052 14.9284 9.48296C16.1557 12.9108 15.7948 16.8709 13.8659 19.9969L12.4852 19.1453C14.1475 16.4513 14.4675 13.0064 13.4003 10.0275L13.3994 10.0251L13.3986 10.0227C13.0431 9.00999 12.5297 8.05674 11.878 7.19674C11.2883 6.4232 10.5998 5.73046 9.82928 5.14117C9.78663 5.11161 9.73937 5.07652 9.70075 5.04761C9.6715 5.02574 9.63713 4.9998 9.60322 4.9742C9.58044 4.95702 9.55791 4.94002 9.53728 4.92452C9.48159 4.88264 9.431 4.84499 9.38909 4.81499C9.35175 4.78824 9.33631 4.7782 9.33631 4.7782V4.7782L9.31238 4.76471L9.28422 4.74561C9.24278 4.71749 9.20588 4.69195 9.17206 4.66855C9.09781 4.61717 9.03834 4.57602 8.978 4.5402L8.9385 4.51674L8.90187 4.48899C8.90416 4.4907 8.904 4.49061 8.90078 4.48845C8.89475 4.48445 8.87806 4.47336 8.84681 4.45396C8.80563 4.42842 8.75513 4.39827 8.70116 4.36664C8.62459 4.32183 8.55488 4.28205 8.49972 4.25058C8.474 4.23589 8.45144 4.22302 8.43284 4.2123L8.43116 4.21133C8.42831 4.20977 8.42412 4.20742 8.41781 4.20395C8.41587 4.20289 8.41375 4.20174 8.4115 4.20049C8.39897 4.19361 8.38225 4.18439 8.36522 4.17492C8.34528 4.16383 8.32109 4.15021 8.29756 4.13642C8.28469 4.12889 8.26069 4.11477 8.23381 4.09733C8.20078 4.07764 8.16534 4.05861 8.12316 4.03596C8.12253 4.03561 8.12191 4.03527 8.12128 4.03492C8.07081 4.01105 8.008 3.98111 7.94134 3.9493C7.81591 3.88949 7.67672 3.82314 7.58013 3.77822L7.56972 3.77338L7.52606 3.75156C7.37291 3.68055 7.18953 3.61104 6.98416 3.53317C6.9395 3.51624 6.89381 3.49892 6.84716 3.4811C6.72056 3.43566 6.58909 3.3943 6.45137 3.35096ZM8.43284 4.2123C8.43372 4.2128 8.43428 4.21308 8.43428 4.21308L8.43284 4.2123ZM8.43284 4.2123C8.43372 4.2128 8.43428 4.21308 8.43428 4.21308L8.43284 4.2123Z" fill="#A6A6A6"/>
  <path fill-rule="evenodd" clip-rule="evenodd" d="M9.86728 7.21117C12.3155 6.76914 14.5747 5.39595 16.1199 3.44133L17.3926 4.44711C15.607 6.70596 13.0003 8.29377 10.1554 8.80739C8.73881 9.0628 7.28322 9.07145 5.86253 8.81099C4.44572 8.55845 3.07857 8.04983 1.84207 7.30727L2.67737 5.91683C3.74287 6.55667 4.92378 6.99633 6.14916 7.21449L6.15128 7.21486L6.15341 7.21527C7.375 7.43946 8.63434 7.43345 9.86728 7.21117Z" fill="#A6A6A6"/>
  <path fill-rule="evenodd" clip-rule="evenodd" d="M5.53316 18.9012C6.91816 11.8339 14.1205 7.93089 20.0108 9.53633L19.5841 11.1012C14.584 9.73842 8.32522 13.0896 7.12519 19.213L5.53316 18.9012Z" fill="#A6A6A6"/>
</svg>
