<svg width="90" height="90" fill="none" xmlns="http://www.w3.org/2000/svg"><g clip-path="url(#a)" fill="#232323"><path d="M42.053.523c-.15.016-.845.087-1.54.15a46.065 46.065 0 0 0-7.026 1.271c-.987.26-2.803.845-3.948 1.264-1.334.489-1.381.505-1.523.576-.071.04-.292.134-.49.213-.52.205-3.584 1.713-4.223 2.076-.3.174-.624.356-.71.403a5.618 5.618 0 0 0-.372.221c-.118.071-.474.292-.79.482-1.8 1.09-4.27 2.929-5.944 4.42-.6.53-2.179 2.085-3.158 3.095-1.587 1.643-3.837 4.556-5.147 6.664a36.788 36.788 0 0 0-1.31 2.25c-.632 1.16-2.03 4.026-2.03 4.16 0 .024-.047.15-.11.284-.577 1.28-1.619 4.39-1.982 5.937-.521 2.171-.537 2.258-.703 3.277-.063.37-.15.892-.197 1.144-.529 2.937-.624 8.527-.205 11.842.205 1.61.387 2.858.513 3.434.04.198.15.695.237 1.106.292 1.381.805 3.22 1.302 4.697.269.79.616 1.76.719 1.974.055.126.197.466.308.75.79 1.958 2.234 4.784 3.355 6.553 2.203 3.489 4.61 6.386 7.674 9.236 1.05.987 2.534 2.227 3.458 2.906.197.142.552.402.79.576 1.017.75 3.536 2.353 4.104 2.62.064.032.277.15.474.261 1.05.6 2.866 1.469 4.54 2.172.213.086.955.37 1.342.52.173.064.434.166.576.23.142.063.395.142.553.181.276.071.497.142 1.12.371.6.213 2.764.766 3.987 1.019.348.07.845.181 1.106.236.26.064.797.15 1.184.198.395.047.782.102.868.126.624.142 3.174.347 4.856.387 2.897.079 5.36-.055 7.54-.395.394-.063.907-.134 1.144-.166.237-.031.75-.118 1.144-.205l1.287-.26c.324-.063.616-.135.648-.158.04-.024.22-.071.41-.11 2.66-.538 7.43-2.37 10.248-3.932.197-.11.529-.292.734-.41.213-.111.513-.285.67-.38.159-.095.364-.213.45-.26.617-.34 2.282-1.437 3.317-2.195a45.001 45.001 0 0 0 9.394-9.213c.79-1.042 1.572-2.155 1.982-2.827.126-.213.284-.465.347-.568.221-.34.853-1.413 1.145-1.934.458-.837 1.934-3.853 1.934-3.963 0-.063.048-.174.103-.26.063-.088.15-.27.197-.396.048-.134.158-.434.253-.67.347-.885.726-1.943.782-2.18a1.98 1.98 0 0 1 .126-.347c.031-.047.102-.26.158-.458.055-.205.19-.671.3-1.042.102-.371.213-.758.237-.868.023-.111.11-.482.197-.83.324-1.247.671-3 .813-4.105.04-.347.095-.718.11-.829.34-2.123.466-6.742.237-9.047-.063-.647-.134-1.39-.157-1.65-.024-.26-.064-.584-.087-.71a11.557 11.557 0 0 1-.087-.656c-.024-.229-.079-.41-.134-.41-.048 0-.285.22-.513.481l-.427.482.095.726c.497 3.821.395 7.974-.284 12.087-.38 2.242-.395 2.321-1.09 4.974-.055.213-.197.67-.308 1.01-.11.34-.205.655-.205.71a1.958 1.958 0 0 1-.158.411c-.087.174-.15.356-.158.403 0 .103-.655 1.808-.908 2.36-.055.127-.252.577-.434.987-.852 1.919-2.613 5.092-3.592 6.458-.126.182-.41.584-.631.892-2.377 3.348-5.535 6.64-8.795 9.182-.948.734-1.098.837-2.63 1.87-1.468.988-3.496 2.172-4.72 2.756-.198.095-.6.284-.908.434-.829.395-1.61.75-1.682.75a2.918 2.918 0 0 0-.37.158c-.174.087-.372.158-.435.158a.562.562 0 0 0-.268.119c-.087.063-.206.118-.269.118-.063 0-.22.047-.355.11-.876.387-4.5 1.461-5.74 1.706-.197.031-.742.142-1.223.237a45.554 45.554 0 0 1-4.027.56c-.52.04-1.176.103-1.46.126-.616.072-4.571.064-5.29-.007a21.204 21.204 0 0 0-1.184-.087c-1.05-.063-3.679-.45-4.784-.719a4.178 4.178 0 0 0-.624-.11c-.079 0-.323-.047-.544-.11a26.317 26.317 0 0 0-.877-.237c-1.192-.308-1.752-.466-1.997-.569a1.348 1.348 0 0 0-.434-.11 1 1 0 0 1-.387-.111 2.26 2.26 0 0 0-.458-.166 2.26 2.26 0 0 1-.458-.166.926.926 0 0 0-.34-.11.62.62 0 0 1-.276-.118.623.623 0 0 0-.323-.119c-.095 0-.19-.032-.213-.071-.024-.04-.143-.095-.261-.126a2.874 2.874 0 0 1-.458-.158 12.202 12.202 0 0 0-.75-.316c-1.31-.545-3.718-1.745-4.5-2.25-.063-.04-.276-.166-.474-.276-.197-.11-.481-.277-.647-.371a23.935 23.935 0 0 0-.671-.41 11.827 11.827 0 0 1-.655-.435c-.15-.11-.332-.245-.403-.284-.766-.474-2.921-2.132-4.058-3.11-1.87-1.611-4.113-3.964-5.77-6.048-.83-1.05-1.327-1.745-2.29-3.19l-.498-.742.253-.363c.481-.71 2.021-2.716 2.187-2.85.023-.024.363-.395.75-.829a33.01 33.01 0 0 1 2.96-2.984 76.74 76.74 0 0 0 1.106-1.003c.07-.087 2.092-1.681 2.66-2.092a71.763 71.763 0 0 1 2.597-1.752c2.061-1.28 4.469-2.527 6.506-3.38.647-.268.908-.378 1.287-.544.165-.071.331-.127.378-.127.048 0 .198-.055.332-.11.395-.182 1.176-.442 1.334-.442.071 0 .348.126.608.276.253.15.49.277.513.277.016 0 .38.157.79.355.418.197.805.355.86.355.048 0 .198.055.316.119.119.063.332.15.474.189l.726.245c1.642.584 4.303 1.184 6.671 1.5 3.34.45 7.619.513 10.5.15 1.137-.142 3.197-.53 3.987-.75 1.216-.34 1.658-.466 2.368-.719.435-.15.948-.331 1.145-.395.553-.189.584-.244.608-1.073.024-1.326.49-2.558 1.429-3.805.197-.261 1.303-1.437 2.463-2.606 2.953-2.984 3.498-3.75 3.955-5.59.308-1.262.111-3.189-.513-4.989-.166-.481-.41-.986-.884-1.8a5.056 5.056 0 0 1-.268-.49c0-.015-.087-.157-.19-.315a2.34 2.34 0 0 0-.837-.695 5.139 5.139 0 0 1-.355-.213c-.655-.418-2.842-1.579-2.976-1.579a.407.407 0 0 1-.213-.102c-.103-.087-.86-.427-2.337-1.043a4.216 4.216 0 0 0-.434-.157 1.191 1.191 0 0 1-.277-.119c-.158-.118-2.818-.979-4.026-1.302a36.337 36.337 0 0 1-.837-.23c-.245-.07-.505-.126-.584-.126-.071 0-.427-.063-.782-.15-.829-.19-1.468-.3-2.495-.45-.813-.118-1.326-.166-3.315-.347-1.224-.103-5.984-.11-7.421 0-.584.04-1.65.118-2.36.158-.72.047-1.327.102-1.367.126-.031.024-.268.055-.513.08a29.64 29.64 0 0 0-1.247.15 97.68 97.68 0 0 0-1.184.157c-.371.047-.727.103-2.408.403-1.105.197-2.756.56-3.987.876-.434.11-.916.229-1.066.26-.316.064-1.066.277-1.54.435-.173.055-.512.158-.75.229-.386.11-2.415.781-3.394 1.113a3.566 3.566 0 0 0-.49.197.554.554 0 0 1-.236.08 1.97 1.97 0 0 0-.419.157c-.173.087-.355.15-.41.158-.048 0-.19.047-.316.11a7.572 7.572 0 0 1-.576.253 31.15 31.15 0 0 0-.687.284 2.71 2.71 0 0 1-.371.142c-.024 0-.387.158-.806.356-.41.197-.773.355-.79.355-.165 0-4.38 2.163-5.202 2.66-.087.056-.26.15-.394.222a5.402 5.402 0 0 0-.356.197c-.063.04-.6.363-1.184.718s-1.2.742-1.366.853c-.166.11-.387.26-.49.324a49.066 49.066 0 0 0-2.66 1.839c-.22.158-.442.292-.481.292-.119 0-.008-.916.268-2.29.134-.67.276-1.365.308-1.539.087-.45.237-1.05.363-1.42.063-.182.11-.372.11-.443 0-.142.845-2.755 1.138-3.505.394-1.01.457-1.184.528-1.342a46.78 46.78 0 0 1 2.898-5.803c1.255-2.108 2.534-3.892 4.318-6.024.577-.687 4.01-4.137 4.627-4.658 1.01-.844 1.792-1.476 2.108-1.697.205-.15.568-.418.805-.6.537-.418 1.958-1.39 2.029-1.39.031 0 .11-.047.173-.11.071-.063.75-.474 1.508-.908.758-.442 1.437-.837 1.5-.876.253-.158 2.905-1.421 2.977-1.421.047 0 .592-.237.994-.442a1.07 1.07 0 0 1 .316-.11c.055-.009.237-.072.41-.159.174-.087.356-.15.403-.158.056 0 .198-.055.316-.118.126-.063.308-.118.403-.118.094 0 .19-.032.213-.071.023-.032.3-.143.616-.245.315-.095.718-.221.892-.277.45-.142 1.334-.394 1.934-.552.284-.071.695-.174.908-.237.22-.055.552-.126.75-.158.197-.024.466-.079.592-.126.134-.04.466-.103.75-.15.284-.04.695-.11.908-.15.695-.127 2.329-.324 3.71-.442 2.392-.214 6.537-.11 8.606.205.308.047.781.11 1.065.15.64.087 2.069.347 2.803.513.308.071.782.174 1.066.237.284.071.766.19 1.066.276.308.087.805.23 1.105.316 1.034.3.947.276 2.013.655.237.087.545.206.687.26.134.064.284.111.324.111.047 0 .181.048.307.11.119.064.38.175.577.246.197.07.466.181.592.236.134.064.379.166.552.245 1.366.577 4.39 2.195 5.685 3.032.094.063.37.237.6.379 1.129.687 3.623 2.581 4.942 3.75 1.129 1.002 3.687 3.623 4.563 4.673 1.255 1.508 1.729 2.14 3.047 4.066 1.682 2.456 3.727 6.513 4.627 9.158.102.324.244.703.308.845.063.134.11.3.11.363 0 .19.126.229.584.174.616-.08.632-.103.49-.592-.19-.64-.592-1.753-.727-1.99a1.046 1.046 0 0 1-.11-.34.921.921 0 0 0-.118-.339 12.015 12.015 0 0 1-.324-.726c-.513-1.263-1.847-3.948-2.48-4.974-.039-.063-.236-.402-.441-.75-1.2-2.037-3.032-4.508-4.919-6.631-2.076-2.345-5.005-4.974-7.429-6.664-.623-.434-2.344-1.57-2.565-1.697-.127-.071-.34-.197-.474-.284a3.752 3.752 0 0 0-.355-.213c-.063-.032-.277-.15-.474-.26a54.126 54.126 0 0 0-2.21-1.185 38.95 38.95 0 0 0-1.698-.79c-.213-.094-.497-.213-.632-.276-.465-.205-1.42-.592-1.657-.663-.127-.04-.435-.15-.671-.245-.38-.15-1.658-.56-2.764-.9-1.026-.316-3.544-.916-3.829-.916-.102 0-.394-.047-.647-.11-.252-.063-.884-.166-1.405-.237C48.96.563 48.51.531 45.408.515 43.718.5 42.203.508 42.053.523zM53.46 31.321c.22.07.45.173.52.229.064.063.158.11.206.11.174 0 .837.821 1.058 1.303.197.434.229.608.229 1.176 0 .687-.095 1.034-.292 1.105-.064.024-.632.008-1.271-.04-.64-.038-1.295-.054-1.453-.03l-.3.055v-.348c0-.537-.142-.923-.49-1.287-.379-.418-.939-.631-1.452-.56-.3.04-.348.024-.348-.095 0-.268.624-1.01 1.106-1.31.805-.506 1.547-.6 2.487-.308z"/><path d="M46.197 5.41c-2.226.419-3.79 2.455-3.647 4.737.087 1.382.695 2.534 1.745 3.324.663.505 1.223.742 2.044.868 2.866.434 5.258-1.603 5.266-4.476 0-1.619-.718-2.953-2.052-3.805-.592-.387-1.09-.569-1.816-.687-.632-.095-.845-.095-1.54.04zm1.745 1.753c1.019.347 1.705 1.176 1.934 2.32.119.6 0 1.17-.379 1.824-.34.577-.79.956-1.452 1.216-1.635.64-3.427-.418-3.774-2.226-.063-.34-.063-.545-.008-.695.04-.118.08-.308.08-.41 0-.198.291-.782.56-1.121.244-.308.79-.703 1.215-.869.506-.197 1.303-.22 1.824-.04zM32.105 7.502c-.71.095-1.144.26-1.942.766-.805.505-1.42 1.31-1.753 2.313-.142.403-.173.687-.173 1.437 0 1.121.174 1.729.75 2.59a4.367 4.367 0 0 0 3.947 1.942c.916-.056 1.453-.222 2.313-.71.506-.293 1.374-1.327 1.666-1.982.174-.395.403-1.445.403-1.848 0-.513-.26-1.5-.56-2.108-.482-.963-1.627-1.918-2.717-2.242a5.32 5.32 0 0 0-1.934-.158zm1.224 1.76c.884.222 1.626.822 1.981 1.611.174.38.214.577.222 1.137 0 .608-.024.726-.253 1.2-.276.56-.797 1.09-1.374 1.405-.292.15-.458.182-1.168.182-.727.008-.877-.016-1.184-.182-.798-.418-1.31-1.026-1.548-1.823-.292-.987.024-2.116.782-2.819.766-.71 1.602-.94 2.542-.71zM59.705 8.765c-1.168.371-1.902 1.816-1.515 2.985.173.513.663 1.27 1.192 1.847.473.513.829 1.168.829 1.532 0 .284-.23.615-.553.781-.3.158-.466.15-.876-.031-.387-.174-.75-.53-1.256-1.216-.387-.537-.465-.545-1.105-.087-.308.221-.395.332-.395.497 0 .316.592 1.16 1.098 1.564 1.468 1.168 3.023 1.294 4.137.331.56-.482.765-.963.765-1.8 0-.6-.023-.703-.284-1.192a7.087 7.087 0 0 0-.726-1.066c-.995-1.168-1.121-1.373-1.121-1.824 0-.473.134-.678.529-.805.56-.181 1.302.26 1.91 1.153.292.418.403.442.955.15.837-.426.814-.742-.118-1.682-.402-.402-.734-.647-1.168-.86-.545-.269-.68-.3-1.334-.324-.403-.016-.837.008-.964.047zM20.46 14.505c-1.231.181-2.55 1.137-3.181 2.313-.71 1.31-.695 2.984.032 4.413.173.347 1.097 1.318 1.492 1.58 1.026.662 2.455.9 3.584.6 1.5-.396 3.016-1.872 3.6-3.498.134-.371.142-.434.04-.6-.206-.332-2.274-2.416-2.393-2.416-.063 0-.481.34-.931.758-.9.82-1.098 1.034-1.098 1.152 0 .158.814.932.98.932.094 0 .291-.126.441-.276.15-.15.332-.277.403-.277.071 0 .26.142.419.324l.292.316-.182.292c-.292.49-.553.79-.932 1.066-.49.363-.979.529-1.578.529-1.193 0-2.093-.569-2.63-1.658-.228-.458-.252-.576-.252-1.224.008-.608.04-.774.22-1.16.396-.806 1.461-1.564 2.204-1.564.473 0 .536-.094.536-.813 0-.402-.04-.694-.094-.75-.095-.095-.49-.11-.971-.04zM68.887 17.189c-3.569 3.616-3.86 3.924-3.86 4.113 0 .127.228.403.71.869.395.379 1.192 1.152 1.776 1.729.584.576 1.153 1.105 1.263 1.176.206.134.206.134.64-.308.276-.292.426-.513.426-.64 0-.15-.316-.489-1.302-1.436-.719-.687-1.303-1.271-1.303-1.295 0-.095 1.318-1.421 1.413-1.421.055 0 .584.458 1.176 1.026.68.64 1.145 1.027 1.248 1.027.205 0 .979-.798.979-1.011 0-.103-.403-.537-1.066-1.168-.584-.553-1.066-1.058-1.066-1.122 0-.063.284-.402.624-.75l.623-.639 1.35 1.303c.75.71 1.398 1.302 1.453 1.318.158.032 1.019-.892.987-1.058-.032-.19-3.71-3.82-3.868-3.82-.064 0-1.058.947-2.203 2.107zM89.54 33.397c-.158.071-.38.134-1.856.545-2.502.702-6.173 1.302-8.447 1.381-2.25.08-4.35.032-5.368-.118a54.03 54.03 0 0 0-1.145-.15c-.348-.048-.86-.134-1.145-.206-1.066-.252-1.468-.355-1.824-.465a3.006 3.006 0 0 0-.473-.119 1.848 1.848 0 0 1-.427-.158 1.977 1.977 0 0 0-.418-.157c-.055 0-.205-.056-.332-.119-.386-.197-.386-.055.008.79.206.45.521 1.713.663 2.723.3 2.013.032 3.584-.876 5.14-.584 1.002-1.279 1.8-3.268 3.781-1.113 1.106-2.219 2.282-2.456 2.606-.52.694-.97 1.586-1.136 2.25-.127.505-.158 1.27-.056 1.334.04.023.277-.008.537-.071 3.758-.908 4.626-1.01 8.219-.963 1.594.015 3.157.07 3.458.118.307.047 1.018.142 1.579.213 2.21.269 4.089.648 5.842 1.169 1.05.307 1.302.347 1.302.19 0-.206-.9-.893-2.392-1.817-.647-.41-2.542-1.358-3.805-1.91a47.171 47.171 0 0 1-.553-.245 16.855 16.855 0 0 0-1.263-.505c-.26-.095-.584-.23-.726-.285a1.16 1.16 0 0 0-.395-.11.575.575 0 0 1-.292-.118.676.676 0 0 0-.34-.119c-.094 0-.292-.047-.434-.11a8.86 8.86 0 0 0-.892-.285c-.347-.094-.734-.197-.868-.236a4.19 4.19 0 0 0-.553-.119 19.318 19.318 0 0 1-.75-.158 10.336 10.336 0 0 0-.908-.158l-.474-.063.277-.102c.15-.056.45-.103.663-.103.45-.008 1.642-.205 2.226-.371.221-.063.45-.11.521-.11.127 0 .75-.182 1.958-.569.774-.245 1.145-.379 1.713-.632.182-.079.348-.142.371-.142.135 0 2.645-1.223 3.482-1.69.26-.15.655-.362.868-.48.221-.12.545-.317.735-.443.19-.126.363-.229.386-.229.024 0 .174-.11.34-.237.166-.134.324-.236.347-.236.135 0 2.819-1.99 4.208-3.119 1.003-.813 3.616-3.426 4.16-4.16.443-.593.53-.877.285-.908a.636.636 0 0 0-.276.055zM30.605 61.178c-.102.198-.102 3.711-.008 3.869.174.268 1.935.174 2.33-.126.244-.182.441-.593.441-.916 0-.269-.26-.766-.394-.766-.142 0-.087-.363.079-.513.126-.11.158-.245.158-.6 0-.419-.024-.466-.277-.687-.355-.316-.71-.41-1.555-.41-.6 0-.703.015-.774.15zm1.634.814c.23.213.23.355.008.592-.126.134-.252.181-.513.181h-.34v-.947h.332c.23 0 .387.055.514.174zm0 1.57c.395.143.285.743-.157.822-.15.031-.356.04-.458.023-.166-.023-.19-.07-.213-.41-.04-.553.008-.616.355-.553.166.032.379.08.474.119zM35.121 61.123c-.07.072-.095.624-.095 2.014v1.918l.206.079c.11.047.6.079 1.097.079 1.121 0 1.303-.055 1.303-.426 0-.15-.04-.3-.087-.332-.048-.024-.41-.047-.798-.04-.45.008-.75-.015-.82-.078-.12-.095-.15-.6-.048-.758.04-.056.316-.103.726-.119l.671-.023.024-.34.024-.331h-.655c-.75 0-.853-.056-.853-.474 0-.442.047-.466.947-.49l.83-.023.023-.26c.047-.459-.04-.49-1.28-.49-.765 0-1.152.031-1.215.094zM39.416 61.155c-.024.07-.048.963-.048 1.997 0 1.35.024 1.895.095 1.966.119.118 2.005.134 2.305.016.142-.055.206-.134.206-.269 0-.418-.04-.442-.83-.442-.402 0-.789-.023-.86-.047-.15-.055-.181-.734-.04-.876.048-.048.277-.072.585-.04.56.04.908-.102.908-.363 0-.26-.174-.332-.782-.332-.331 0-.647-.031-.702-.07-.071-.04-.095-.198-.08-.45l.024-.387.782-.024c.434-.008.837-.063.892-.11.126-.103.134-.474.008-.6-.063-.064-.458-.096-1.255-.096-.987 0-1.169.016-1.208.127zM43.718 61.14c-.063.07-.087.678-.07 2.028l.023 1.919.26.079c.206.055.285.039.411-.072.134-.118.158-.244.158-.797 0-.64.008-.663.197-.71.277-.071.356.023.742.797.182.363.403.71.49.758.174.087.631.024.71-.103.032-.047-.102-.355-.292-.687-.402-.702-.426-.868-.126-1.042.324-.181.513-.64.474-1.113-.032-.316-.095-.442-.332-.687-.166-.166-.426-.34-.592-.394-.442-.127-1.942-.119-2.053.023zm1.998.876c.442.41.087.907-.656.907-.52 0-.56-.039-.56-.544 0-.253.024-.482.055-.505.024-.032.253-.056.498-.056.37 0 .49.032.663.198zM51.558 61.186c-.403.174-.845.608-1.058 1.027-.118.229-.158.465-.158.931 0 .553.024.656.26 1.042.577.971 1.864 1.319 2.843.758.355-.205.418-.37.245-.64-.15-.228-.387-.252-.663-.062-.316.22-.932.181-1.28-.08-.284-.22-.615-.789-.615-1.065 0-.079.095-.332.205-.553.34-.686 1.018-.908 1.705-.56.324.166.324.166.53.008.386-.284.307-.466-.325-.806-.386-.205-1.231-.205-1.689 0zM56.46 61.17c-.663.277-1.057.743-1.247 1.445-.19.75.063 1.61.616 2.053.434.355.64.45 1.082.505.726.095 1.255-.063 1.736-.513.948-.86.932-2.273-.039-3.126-.197-.174-.497-.363-.671-.41-.434-.135-1.105-.111-1.476.047zm1.2.735c.356.126.711.529.814.908.245.86-.576 1.72-1.484 1.563-.143-.032-.419-.197-.624-.379-.363-.324-.363-.34-.363-.813 0-.41.031-.537.213-.766.379-.505.947-.703 1.445-.513zM71.855 63.476c-.087.04-.268.071-.41.071-.624.016-1.682.584-2.321 1.248-.64.663-2.203 2.581-2.203 2.715 0 .063.047.174.103.245.079.103 2.542 2.14 4.081 3.379.292.237.782.64 1.074.884.995.83 1.334 1.09 1.421 1.09.103 0 .34-.253 1.334-1.453 1.39-1.674 1.619-2.163 1.674-3.481.024-.482 0-1.074-.04-1.319-.292-1.532-1.776-3.008-3.323-3.3-.624-.118-1.216-.15-1.39-.079zm1.027 1.824c.908.316 1.515.868 1.91 1.72.292.632.276 1.485-.04 2.109-.228.45-1.033 1.508-1.239 1.634-.07.031-.387-.174-.892-.592a245.578 245.578 0 0 0-2.092-1.721c-.718-.584-1.31-1.121-1.31-1.184-.008-.174.915-1.248 1.35-1.58.418-.307 1.042-.536 1.523-.544.182-.008.53.063.79.158zM60.7 64.266c-.379.157-.371.773.016.876.26.07.56-.024.631-.205.103-.269.048-.498-.15-.624-.213-.142-.244-.142-.497-.047zM20.453 65.947c-.703.616-2.93 2.613-4.595 4.113-.576.513-1.042.98-1.042 1.034 0 .143.781 1.019.987 1.098.158.063.308-.04 1.192-.821.56-.49 1.358-1.2 1.768-1.58.41-.37 1.121-1.01 1.58-1.42 1.752-1.556 1.973-1.769 1.973-1.919 0-.079-.182-.355-.403-.615-.552-.624-.647-.616-1.46.11zM62.421 71.023c-.608.34-.71.427-.71.6 0 .087.276.664.607 1.28 1.46 2.691 1.722 3.189 1.674 3.236-.04.04-2.116-.616-2.376-.75a2.535 2.535 0 0 0-.434-.142c-.166-.04-.711-.213-1.208-.387-2.432-.837-2.992-.995-3.198-.9-.268.119-.252.395.032.908.118.23.379.695.56 1.042.687 1.28.853 1.595 1.185 2.21.181.348.426.79.537.988.102.197.347.64.528.986.695 1.295.948 1.722 1.074 1.8.126.08.419-.031 1.058-.41.292-.174.34-.474.134-.821a19.21 19.21 0 0 1-.481-.868c-.924-1.737-1.074-2.022-1.5-2.764-.135-.244-.23-.608-.142-.608.063 0 .789.253 1.16.395.237.095.545.205.671.237.245.079 1.65.568 1.855.655.063.032.277.103.474.166.197.063.71.237 1.145.395 1.705.623 1.752.64 1.974.49.11-.072.197-.19.189-.27 0-.07-.158-.418-.347-.765a38.053 38.053 0 0 1-.498-.908 96.3 96.3 0 0 0-.49-.908 95.3 95.3 0 0 1-.489-.908c-.079-.15-.173-.331-.22-.394-.04-.064-.317-.585-.617-1.145-.631-1.176-1.081-2.005-1.27-2.36-.174-.316-.42-.332-.877-.08zM26.216 71.063c-1.097.418-1.753 1.69-1.453 2.81.11.41.395 1.05.616 1.374.774 1.145.963 1.532.963 1.942 0 .466-.434.884-.916.892-.584 0-1.176-.529-1.65-1.484-.323-.647-.378-.671-.963-.371-.592.292-.702.45-.592.821.276.908 1.13 1.855 2.116 2.329.568.276.671.3 1.31.308.766 0 1.137-.11 1.666-.521.395-.308.656-.719.821-1.326.127-.458.127-.514-.008-1.05-.157-.593-.552-1.398-.915-1.864a7.614 7.614 0 0 1-.506-.797c-.379-.687-.379-1.019-.015-1.382.584-.584 1.42-.173 2.131 1.043.158.268.332.505.395.528.221.087 1.097-.323 1.232-.576.063-.118.039-.237-.111-.529-.884-1.752-2.692-2.7-4.121-2.147zM35.966 75.176a4.21 4.21 0 0 0-.205.687c-.064.284-.166.718-.221.955-.23.979-.458 1.966-.56 2.432-.056.268-.159.71-.222.987-.071.268-.166.686-.221.923-.047.237-.19.821-.3 1.303-.119.474-.197.916-.174.97.032.103.671.3 1.674.522.324.079.79.181 1.026.245 1.95.481 2.258.505 2.321.173.024-.094.08-.363.134-.592.08-.37.072-.434-.047-.568a.505.505 0 0 0-.324-.158c-.094 0-.268-.032-.379-.079-.252-.095-1.934-.474-2.107-.474-.071 0-.174-.055-.237-.126-.103-.126-.08-.26.323-1.887.072-.308.198-.82.269-1.145.34-1.507.608-2.636.758-3.276.079-.316.11-.608.079-.671-.071-.126-.948-.395-1.295-.395a.318.318 0 0 0-.292.174zM48.708 75.926c-.087.079-.237.41-.331.734-.103.324-.23.719-.285.869-.055.15-.237.702-.395 1.223-.165.521-.497 1.571-.75 2.33-.244.757-.584 1.807-.742 2.328-.165.521-.347 1.09-.41 1.263-.11.3-.103.324.055.458.095.08.221.127.276.103.056-.024.324-.063.6-.095.277-.031.545-.087.6-.134.048-.04.19-.379.308-.75.26-.853.371-.963.924-.963.237 0 .703-.055 1.042-.119.347-.055.94-.118 1.326-.134l.703-.023.292.489c.15.268.371.584.474.695.181.19.213.197.781.15.332-.032.664-.087.743-.127.26-.134.173-.331-.758-1.84-.245-.394-.727-1.175-1.066-1.736-.347-.568-.853-1.39-1.13-1.84-.702-1.12-.694-1.113-1.175-1.918-.443-.734-.727-1.097-.853-1.097-.047 0-.142.063-.229.134zm.655 3.403c.048.031.26.347.474.71.213.363.45.75.521.869.308.481.308.473.182.592-.063.063-.332.142-.593.165-.26.024-.678.072-.939.095-.308.032-.482.016-.521-.047-.032-.047.024-.347.118-.655.23-.735.482-1.572.522-1.698.031-.11.11-.118.236-.031z"/></g><defs><clipPath id="a"><path fill="#fff" d="M0 0h90v90H0z"/></clipPath></defs></svg>