<svg width="15" height="16" viewBox="0 0 15 16" fill="none" xmlns="http://www.w3.org/2000/svg">
  <path d="M0.564988 0.952073C0.955512 0.561549 1.58868 0.561549 1.9792 0.952073L14.7071 13.68C15.0976 14.0705 15.0976 14.7037 14.7071 15.0942C14.3166 15.4847 13.6834 15.4847 13.2929 15.0942L0.564988 2.36629C0.174464 1.97576 0.174464 1.3426 0.564988 0.952073Z" fill="#E4E4E4"/>
  <path d="M0.564988 15.0943C0.174464 14.7037 0.174464 14.0706 0.564988 13.68L13.2929 0.952119C13.6834 0.561595 14.3166 0.561595 14.7071 0.952119C15.0976 1.34264 15.0976 1.97581 14.7071 2.36633L1.9792 15.0943C1.58868 15.4848 0.955512 15.4848 0.564988 15.0943Z" fill="#E4E4E4"/>
</svg>
