<svg width="80" height="34" fill="none" xmlns="http://www.w3.org/2000/svg"><g clip-path="url(#a)" fill-rule="evenodd" clip-rule="evenodd" fill="#232323"><path d="M23.473 33.292h-8.759V20.76H9.03v12.532H0V.992h9.029v12.016h5.685V.993h8.759v32.3zM63.6 23.369c3.554 0 6.435-2.888 6.435-6.452 0-3.562-2.881-6.45-6.435-6.45-3.555 0-6.436 2.888-6.436 6.45 0 3.564 2.881 6.451 6.435 6.451zm-8.187-6.452c0-4.532 3.665-8.206 8.187-8.206 4.52 0 8.186 3.675 8.186 8.206 0 4.533-3.665 8.207-8.187 8.207-4.52 0-8.186-3.674-8.186-8.207zm-11.399 0c1.013-.128 2.701-1.29 3.296-2.03-.209.918-.225 3.578.02 4.497-.68-1.048-2.287-2.338-3.316-2.467zM38.129 8.23c1.286 0 2.3 1.273 2.3 2.724 0 1.45-1.014 2.724-2.3 2.724h-4.422V8.23h4.422zm-.017 12.105c1.287 0 2.3 1.273 2.3 2.724 0 1.45-1.013 2.724-2.3 2.724h-4.421v-5.448h4.421zm25.482 13.117c9.01-.004 16.342-7.508 16.34-16.541C79.933 7.687 72.605.522 63.594.516c-9-.007-13.598 6.634-14.734 9.314.01-4.024-3.946-8.773-8.574-8.778h-14.91v32.24l13.902.002c5.604 0 9.592-4.868 9.6-9.043 1.279 2.627 5.716 9.204 14.716 9.2z"/></g><defs><clipPath id="a"><path fill="#fff" transform="translate(0 .516)" d="M0 0h80v32.969H0z"/></clipPath></defs></svg>