<svg width="180" height="58" fill="none" xmlns="http://www.w3.org/2000/svg"><g clip-path="url(#a)"><path d="M67.993 55.646h11.49v-9.329h-11.49v9.329zm-15.385-32.12H63.79v-9.293H52.61v9.292zM74.091 8.19h-5.003V6.254h4.345V4.451h-4.345V2.58h4.937V.777h-6.939v9.216h7.005V8.19zm-12.692-.922-2.41-6.49h-2.237l3.725 9.281h1.79L65.995.777h-2.186l-2.41 6.49zM37.596 38.562V25.597h-11.18v14.522c-.004 1.397.135 2.79.415 4.158l12.637.002c-1.122-1.155-1.872-2.98-1.872-5.717zm4.246 18.12c4.658 0 8.076-1.347 10.766-4.554v3.518H63.79v-9.329H27.38c2.276 6.773 8.273 10.365 14.463 10.365zm10.766-18.634c0 2.735-1.051 4.873-2.98 6.227l14.161.004V25.597H52.61v12.45zm69.433-12.453c2.074 1.738 3.264 4.619 3.264 8.518 0 5.146-1.367 8.35-3.468 10.164h13.246c.915-2.795 1.412-6.098 1.412-9.957a28.593 28.593 0 0 0-1.275-8.729l-13.179.004zm28.599 9.344c0-4.726 1.257-7.655 3.179-9.342h-12.873a24.846 24.846 0 0 0-1.486 8.618c0 3.858.614 7.206 1.683 10.067l12.834-.005c-2.031-1.775-3.337-4.814-3.337-9.338zm8.905 22.26c7.326 0 14.016-3.614 17.487-10.882h-35.01c3.621 7.356 10.571 10.883 17.523 10.883zM67.993 44.276h11.49V32.664c0-3.037 1.088-5.182 3.65-6.918a5.71 5.71 0 0 1 .238-.15l-15.378.003v18.676zM178.066 25.59l-12.879.01c2.008 1.739 3.158 4.616 3.158 8.513 0 5.146-1.324 8.35-3.362 10.164l12.894.005c1.054-2.901 1.649-6.29 1.649-10.17a24.78 24.78 0 0 0-1.46-8.522zm-98.685-7.213v-4.144H67.993v9.292h24.121v-9.911c-4.762-.623-9.317.517-12.733 4.762zm16.841 37.269h10.974V52.23c2.587 3.105 6.315 4.452 9.835 4.452 7.687 0 14.077-3.145 17.267-10.365H96.222v9.328zM28.076.776h-2.028v9.216h2.028V.777zm20.908 4.582c-.003-.38.066-.758.204-1.113.13-.337.322-.647.566-.915.245-.265.543-.476.876-.618a2.77 2.77 0 0 1 1.119-.224c.387-.006.771.073 1.125.23a2.777 2.777 0 0 1 1.462 1.547c.137.357.206.737.204 1.12v.025c.002.381-.067.759-.204 1.113-.13.338-.323.648-.567.915-.243.265-.539.475-.868.619a2.75 2.75 0 0 1-1.126.224 2.703 2.703 0 0 1-1.12-.23 2.765 2.765 0 0 1-1.467-1.548 3.067 3.067 0 0 1-.204-1.119V5.36zm-.744 3.403c.446.434.971.778 1.547 1.014.622.255 1.29.383 1.962.375a5.077 5.077 0 0 0 1.968-.375 4.716 4.716 0 0 0 2.943-4.39v-.027a4.729 4.729 0 0 0-.363-1.85 4.537 4.537 0 0 0-1.013-1.501A4.889 4.889 0 0 0 53.737.994a5.333 5.333 0 0 0-3.93 0 4.712 4.712 0 0 0-2.943 4.391v.027a4.73 4.73 0 0 0 .362 1.85 4.529 4.529 0 0 0 1.014 1.5zm38.793 1.231h2.028V6.32L92.603.777h-2.305l-2.238 3.7-2.199-3.7h-2.37l3.542 5.583v3.633zm72.512 2.378c-7.711 0-14.337 4.285-17.709 11.154h35.354c-3.319-6.824-9.867-11.153-17.645-11.153zM107.048 34.94c0-4.726 1.295-7.655 3.277-9.342l-14.103.002v18.676l14.258-.004c-2.089-1.774-3.432-4.813-3.432-9.332zM77.606 2.607h2.015c.416-.025.83.092 1.171.33a1.185 1.185 0 0 1 .421.993v.027a1.214 1.214 0 0 1-.4.953c-.269.238-.653.357-1.153.357h-2.054v-2.66zm0 4.437H79.2l1.975 2.95h2.37l-2.251-3.292a3.162 3.162 0 0 0 1.428-1.034 2.892 2.892 0 0 0 .547-1.823v-.026c0-.878-.264-1.58-.79-2.107-.624-.623-1.519-.935-2.686-.935H75.58v9.216h2.027V7.044zm40.357 5.638c-3.934 0-7.869 1.347-10.767 4.347V.75H96.222v22.776h38.225c-2.956-6.84-8.905-10.843-16.484-10.843zM11.852 42.177v-16.58H.775v18.678H12.62a2.934 2.934 0 0 1-.768-2.098zm27.23-33.402c.43.432.94.774 1.502 1.008a4.773 4.773 0 0 0 1.882.368c.407.004.813-.033 1.212-.112a4.332 4.332 0 0 0 1.83-.849c.263-.209.51-.438.737-.685l-1.29-1.303c-.33.303-.695.566-1.086.783a2.77 2.77 0 0 1-1.337.297 2.534 2.534 0 0 1-1.929-.856 2.936 2.936 0 0 1-.546-.922 3.157 3.157 0 0 1-.197-1.119V5.36c-.003-.38.064-.757.197-1.113.126-.337.313-.647.553-.915a2.54 2.54 0 0 1 1.922-.842 2.8 2.8 0 0 1 1.258.276c.4.203.77.46 1.1.764l1.29-1.488a5.477 5.477 0 0 0-.685-.58 4.197 4.197 0 0 0-.804-.447 4.946 4.946 0 0 0-.96-.29A6.055 6.055 0 0 0 42.544.62a4.926 4.926 0 0 0-1.948.375 4.576 4.576 0 0 0-1.514 1.027 4.757 4.757 0 0 0-.988 1.514 4.809 4.809 0 0 0-.355 1.85v.027a4.856 4.856 0 0 0 .355 1.856c.226.563.562 1.075.988 1.507zm-12.665 14.75h11.18v-9.292h-11.18v9.292zM22.362 5.411c.004.38-.063.758-.198 1.113a2.472 2.472 0 0 1-1.448 1.442 3.125 3.125 0 0 1-1.132.197h-1.567V2.607h1.567c.387-.005.771.065 1.132.204a2.508 2.508 0 0 1 1.448 1.448c.136.36.203.742.198 1.126v.026zm.757-3.318a4.692 4.692 0 0 0-1.547-.967 5.435 5.435 0 0 0-1.988-.349h-3.595v9.216h3.595a5.345 5.345 0 0 0 1.988-.355 4.774 4.774 0 0 0 1.547-.974c.434-.412.777-.91 1.007-1.462.24-.575.36-1.193.356-1.817V5.36a4.575 4.575 0 0 0-.356-1.81 4.312 4.312 0 0 0-1.007-1.456zM.775 46.317v.011c0 6.521 3.934 10.458 10.664 10.458a41.06 41.06 0 0 0 12.424-1.97l-2.266-8.499H.775zM22.31 14.233H11.852V.75L.775 4.27v19.255H22.31v-9.292zm12.054-6.116c-.298.17-.639.25-.981.23a3.47 3.47 0 0 1-1.455-.302 6.017 6.017 0 0 1-1.297-.816L29.432 8.66a5.473 5.473 0 0 0 1.843 1.105 6.149 6.149 0 0 0 2.067.359c.463.005.924-.06 1.367-.191a3.124 3.124 0 0 0 1.062-.554c.297-.242.534-.549.693-.897.172-.384.256-.8.248-1.22v-.026a2.577 2.577 0 0 0-.19-1.042 2.114 2.114 0 0 0-.569-.758 3.48 3.48 0 0 0-.924-.554 9.421 9.421 0 0 0-1.247-.416 27.521 27.521 0 0 1-.984-.277 2.912 2.912 0 0 1-.613-.25.779.779 0 0 1-.31-.297.83.83 0 0 1-.086-.39v-.026a.703.703 0 0 1 .296-.573 1.43 1.43 0 0 1 .888-.231c.408.002.81.085 1.185.244.426.179.832.402 1.212.664l1.053-1.522a5.411 5.411 0 0 0-1.56-.863A5.555 5.555 0 0 0 33 .646a4.065 4.065 0 0 0-1.302.197c-.372.12-.717.313-1.015.567-.28.242-.505.541-.66.877a2.682 2.682 0 0 0-.236 1.141v.027c-.012.393.062.785.218 1.147.14.302.351.567.614.771.292.222.617.396.963.515.38.136.802.266 1.268.39.387.096.702.188.944.276.198.067.388.156.567.264a.732.732 0 0 1 .278.283.8.8 0 0 1 .073.35v.026a.728.728 0 0 1-.35.64z" fill="#232323"/></g><defs><clipPath id="a"><path fill="#fff" transform="translate(0 .2)" d="M0 0h180v57.6H0z"/></clipPath></defs></svg>