<svg width="120" height="24" fill="none" xmlns="http://www.w3.org/2000/svg"><g clip-path="url(#a)"><mask id="b" style="mask-type:luminance" maskUnits="userSpaceOnUse" x="0" y="0" width="23" height="24"><path d="M2.272 14.665a12.603 12.603 0 0 0-2.124-.558 11.108 11.108 0 0 0 1.2 3.341 11.103 11.103 0 0 0 8.03 5.61c-.12-3.43-2.9-6.885-7.106-8.393zm.4-3.479c5.554-.484 9.828-4.811 10.344-10.073a11.075 11.075 0 0 0-7.314 1.218A11.113 11.113 0 0 0 0 11.109c.866.125 1.761.157 2.672.077zm8.423 3.448a12.649 12.649 0 0 0 2.566 8.254c.957-.228 1.9-.586 2.804-1.085 5.377-2.972 7.327-9.74 4.355-15.118a11.102 11.102 0 0 0-2.398-2.981c-4.145 1.934-7.102 6.045-7.327 10.93z" fill="#fff"/></mask><g mask="url(#b)"><path d="M2.272 14.665a12.603 12.603 0 0 0-2.124-.558 11.108 11.108 0 0 0 1.2 3.341 11.103 11.103 0 0 0 8.03 5.61c-.12-3.43-2.9-6.885-7.106-8.393zm.4-3.479c5.554-.484 9.828-4.811 10.344-10.073a11.075 11.075 0 0 0-7.314 1.218A11.113 11.113 0 0 0 0 11.109c.866.125 1.761.157 2.672.077zm8.423 3.448a12.649 12.649 0 0 0 2.566 8.254c.957-.228 1.9-.586 2.804-1.085 5.377-2.972 7.327-9.74 4.355-15.118a11.102 11.102 0 0 0-2.398-2.981c-4.145 1.934-7.102 6.045-7.327 10.93z" fill="#232323"/></g><path d="M58.91 21.091h3.208V2.557h-3.207v18.534zM71.797 7.636c-1.597 0-3.124.602-4.11 2.21V7.917h-2.888v13.174h3.088v-6.978c0-.546.049-1.068.145-1.45.356-1.421 1.368-2.247 2.858-2.247 1.54 0 2.427.771 2.712 2.312.069.368.102.894.102 1.383v6.98h3.089v-7.796c0-.874-.088-1.665-.292-2.34-.67-2.239-2.46-3.32-4.704-3.32zM87.109 18.074c-.335.079-.894.108-1.255.108h-3.55v-5.226h3.818c.343 0 .734.035 1.011.097 1.501.333 2.077 1.517 2.077 2.512 0 1.317-.846 2.213-2.101 2.509zM82.303 5.467h2.848c.65 0 1.34.09 1.783.294.773.356 1.19 1.021 1.19 2.021 0 1.005-.445 1.692-1.232 2.046-.394.177-.97.27-1.635.27h-2.954V5.468zm7.213 5.718c1.253-.962 1.78-2.067 1.78-3.645 0-2.36-1.463-4.132-3.693-4.735-.579-.156-1.52-.247-2.614-.247H79.13V21.09h6.562c1.279 0 2.136-.122 2.976-.418 2.198-.776 3.715-2.483 3.715-4.988 0-2.092-.994-3.581-2.867-4.5zM116.688 7.917l-3.299 9.411-3.347-9.41h-3.346l5.232 13.173h2.85L120 7.917h-3.312zM96.591 13.468c.222-1.896 1.76-3.142 3.627-3.142 1.963 0 3.455 1.299 3.675 3.142h-7.302zm3.599-5.832c-3.75 0-6.664 3.017-6.664 6.96 0 3.64 2.87 6.777 6.795 6.777 2.868 0 5.089-1.65 6.224-4.323h-3.141c-.708 1.058-1.656 1.632-3.03 1.632-2.047 0-3.386-1.203-3.792-3.056h10.281c.078-.438.099-.806.094-1.251-.034-3.54-2.748-6.74-6.767-6.74zM50.773 18.18h-3.817v-5.328c.484-.02.958-.031 1.417-.026 3.471.045 5.49 1.056 5.491 2.854 0 1.618-1.447 2.5-3.091 2.5zM46.956 5.466h2.722c.622 0 1.143.071 1.5.188 1.034.337 1.598 1.116 1.598 2.372 0 1.162-.585 1.927-1.514 2.278a17.883 17.883 0 0 0-2.977-.234c-.413 0-.868.006-1.33.021V5.466zM29.772 16.881l4.117-10.658 2.396 6.39c-2.478 1.137-4.688 2.595-6.513 4.268zm24.369-5.67c1.336-.977 1.808-2.439 1.808-3.67 0-2.362-1.463-4.133-3.693-4.736-.58-.156-1.52-.248-2.615-.248h-5.858v7.82a28.251 28.251 0 0 0-4.728 1.14L35.4 2.557h-2.943L24.892 21.09h3.086c2.667-2.82 5.85-4.843 9.166-6.185l2.319 6.185h3.5l-2.93-7.178a28.949 28.949 0 0 1 3.75-.803v7.98l1.592.002v.004h5.593c3.952 0 6.072-2.32 6.072-5.41 0-1.875-.928-3.469-2.9-4.475z" fill="#232323"/></g><defs><clipPath id="a"><path fill="#fff" transform="translate(0 .942)" d="M0 0h120v22.115H0z"/></clipPath></defs></svg>