<svg width="21" height="21" viewBox="0 0 21 21" fill="none" xmlns="http://www.w3.org/2000/svg">
  <path d="M4.97553 20.6791H15.7046C18.2623 20.6791 20.3401 18.5979 20.3401 16.0436L20.339 5.23459C20.339 2.67694 18.2578 0.599121 15.7035 0.599121H4.97556C2.4179 0.599121 0.340088 2.6803 0.340088 5.23459V16.0447C0.340088 18.5991 2.42124 20.6791 4.97553 20.6791ZM2.02253 5.23459C2.02253 3.6058 3.34573 2.28159 4.97553 2.28159H15.7046C17.3334 2.28159 18.6576 3.60479 18.6576 5.23459V16.0447C18.6576 17.6735 17.3344 18.9977 15.7046 18.9977L4.97553 18.9966C3.34674 18.9966 2.02253 17.6734 2.02253 16.0436V5.23459Z" fill="#A6A6A6"/>
  <path d="M10.3395 15.556C13.0516 15.556 15.2576 13.3488 15.2576 10.6378C15.2576 7.92573 13.0516 5.7197 10.3395 5.7197C7.62744 5.7197 5.42139 7.92575 5.42139 10.6378C5.42139 13.3499 7.62744 15.556 10.3395 15.556ZM10.3395 7.40217C12.1228 7.40217 13.5752 8.85461 13.5752 10.6378C13.5752 12.421 12.1227 13.8735 10.3395 13.8735C8.5563 13.8735 7.10385 12.421 7.10385 10.6378C7.10385 8.85461 8.5563 7.40217 10.3395 7.40217Z" fill="#A6A6A6"/>
  <path d="M16.1328 3.97583C17.7879 4.66152 16.7594 7.14251 15.1043 6.45792C13.4503 5.77223 14.4777 3.29011 16.1328 3.97583Z" fill="#A6A6A6"/>
</svg>
