<svg width="120" height="26" fill="none" xmlns="http://www.w3.org/2000/svg"><g clip-path="url(#a)" fill="#232323"><path d="M69.68 1.02s.398.361.391.838v22.118c.007.477-.391.838-.391.838h12.006v-5.818s-.109.557-.874.544h-3.99V1.858c-.006-.477.392-.838.392-.838H69.68zm40.332 0H99.819V6.94s.108-.557.874-.543h3.029v17.578c.006.477-.392.838-.392.838h7.534s-.398-.361-.392-.838V3.85l-.46-2.83z"/><path d="M114.26 1.02V6.94s-.109-.557-.874-.543h-5.115c-.016-1.796-.07-3.64-.239-5.378h6.228zM116.298 25.341c2.041 0 3.696-1.692 3.696-3.78 0-2.087-1.655-3.78-3.696-3.78-2.041 0-3.695 1.693-3.695 3.78 0 2.088 1.654 3.78 3.695 3.78zM118.447 2.926a.763.763 0 0 0 .225-.14.625.625 0 0 0 .153-.216.746.746 0 0 0 .055-.3c0-.235-.073-.415-.218-.54-.146-.123-.377-.185-.694-.185h-1.075v2.622h.346V3.003h.579l.788 1.165h.404l-.833-1.165c.095-.017.185-.042.27-.077zm-.753-.198h-.455v-.909h.632c.086 0 .169.007.247.019a.648.648 0 0 1 .212.07c.063.034.113.08.149.137a.4.4 0 0 1 .056.226.42.42 0 0 1-.072.26.404.404 0 0 1-.189.136.955.955 0 0 1-.27.052 5.396 5.396 0 0 1-.31.01zm.03-2.208c-1.251 0-2.256 1.051-2.259 2.343.003 1.291 1.008 2.343 2.259 2.343 1.25 0 2.255-1.052 2.257-2.343-.002-1.292-1.007-2.343-2.257-2.343zm0 4.481c-1.13-.002-2.053-.954-2.053-2.138s.922-2.136 2.053-2.138c1.13.002 2.052.954 2.052 2.138s-.922 2.136-2.052 2.138zM59.994.496c-6.703 0-8.974 5.606-8.974 12.474 0 7.01 2.424 12.466 8.943 12.466 6.52 0 9.005-5.344 9.005-12.466 0-7.063-2.49-12.474-8.974-12.474zm2.015 13.717c0 4.632-.902 5.917-2.014 5.917-1.113 0-2.015-1.24-2.015-5.917V11.43c0-4.365.902-5.634 2.015-5.634 1.112 0 2.014 1.403 2.014 5.634v2.783zm30.171 3.65c0 1.426-.733 2.175-1.637 2.175-.903 0-1.636-.758-1.636-2.175V1.857c-.008-.476.39-.837.39-.837h-7.555s.398.361.392.838v16.136c0 5.32 3.761 7.466 8.39 7.466 4.627 0 8.365-2.457 8.365-7.475V1.858c-.007-.477.391-.838.391-.838h-7.493s.398.361.391.838v15.919l.002.086zM31.01 12.5l.027-.006c2.33-.544 3.83-2.473 3.83-5.227 0-3.891-2.82-6.256-8.13-6.256h-7.613s.398.362.391.838v22.086c.007.476-.391.837-.391.837h8.573l.321-.002c5.38 0 7.809-2.845 7.809-6.475 0-3.23-1.874-5.23-4.818-5.795zm-4.826-6.602h.612c1.239 0 2.243.777 2.243 2.341 0 1.293-1.005 2.342-2.243 2.342h-.612V5.897zm.7 14.042h-.7v-5.168h.592c1.416 0 2.67.75 2.67 2.584 0 1.667-1.147 2.584-2.563 2.584zM9.689 25.114h.025l-.013-.002-.012.002zm2.03-.331h7.37s-.246-.343-.603-1.939L13.733 2.236s-.225-.932.35-1.221H5.47c.576.29.35 1.221.35 1.221l-4.762 20.54C.7 24.374.006 24.784.006 24.784h7.678c-.467-.288-.414-.719-.414-.719l.458-3.08h3.947l.412 2.914s.096.573-.369.885zm-3.31-8.215 1.348-9.43 1.312 9.43h-2.66zm33.996 3.436c1.767 0 1.652-1.587 1.652-1.587.005-1.154-.987-1.905-.987-1.905l-4.164-3.495-.073-.063c-1.374-1.266-2.247-3.163-2.247-5.282 0-3.813 2.712-7.052 7.244-7.052 1.388 0 2.824.296 4.05.892 0 0 .604.355 1.128-.195v6.228s-2.53-1.772-4.617-1.772c0 0-1.539-.019-1.539 1.428 0 0-.018.788 1.228 1.74 0 0 4.212 3.077 5.64 5.44 0 0 1.19 1.922 1.044 4.211 0 0-.22 6.886-7.472 6.886 0 0-2.833.026-5.311-1.392 0 0-.82-.51-1.355-.016v-7.016s3.354 2.95 5.779 2.95z"/></g><defs><clipPath id="a"><path fill="#fff" transform="translate(0 .496)" d="M0 0h120v25.008H0z"/></clipPath></defs></svg>