<svg width="200" height="52" fill="none" xmlns="http://www.w3.org/2000/svg"><g clip-path="url(#a)" fill="#232323"><path d="M97.636 40.657c-1.212 1.117-2.21 2.162-3.302 3.136-4.49-4.347-8.932-8.552-12.97-13.018-2.899-3.207-3.73-2.898-5.06 1.354-1.046 3.255-3.255 9.954-3.873 13.303l-4.205-1.116c1.022-4.039 2.495-8.79 3.635-13.327-4.276 1.686-7.673 2.518-11.284 3.397-2.66.641-5.82 1.52-7.554-1.212-1.806-2.85.047-5.582 2.114-7.625 2.257-2.233 4.656-4.443 7.364-6.058 1.52-.903 3.896-2.09 5.678-.831.998.688 1.235 2.518.451 5.463a88.12 88.12 0 0 1-.641 2.138l-3.777-.807c.261-.95.451-2.28-.238-2.28-1.663.498-4.561 3.087-6.675 5.677-.76.641-.998 1.71.047 1.639 4.229-.356 10.88-2.875 15.822-4.87 0 0 1.853-3.587 3.587-7.792 2.4-5.844 5.654-11.308 10.405-16.795l3.23 2.827c-4.513 5.725-9.003 12.709-11.569 19.765 5.06-1.925 10.596-4.562 15.822-7.341a349.826 349.826 0 0 1 2.09 3.635c-4.276 2.803-8.124 4.75-12.994 6.817 4.609 4.585 9.098 9.099 13.897 13.921zM148.497 5.499c-7.625 2.755-19.551 9.81-20.026 10.167l-2.946-3.848S139.137 3.67 146.692 1.15c5.036-1.686 8.789.262 7.697 6.367-.903 5.036-4.728 18.197-4.728 18.197 6.937 4.609 15.513 11.379 21.998 22.734l-3.943 2.946c-4.538-8.79-13.399-17.01-21.381-22.164-1.235-.808-1.829-2.305-1.401-3.73 1.805-6.058 4.252-14.11 5.321-18.434.261-1.022-.736-1.925-1.758-1.568zM102.91 18.564c1.568.452 2.708.784 4.015 1.188-.048.214-2.186 7.982-2.186 7.982 2.78-2.257 5.393-4.585 7.483-6.319 2.495-2.09 5.464-3.397 7.27.451 2.328-1.496 3.444-2.185 5.725-2.185 1.354 0 3.207.95 3.135 3.73-.023 1.567-.926 5.677-2.66 12.923l-3.777-.475c.499-2.21 1.401-7.388 2.09-10.667.095-.499-.427-.879-.855-.617l-4.989 2.874s-1.449 6.105-2.209 8.814c-1.378-.404-2.518-.737-3.967-1.164a3080.35 3080.35 0 0 0 2.565-9.954c-2.209 1.782-5.25 4.133-7.459 5.915-1.425 1.164-2.946 2.993-4.49 3.896-.712.428-2.138.404-2.803-.071-.594-.428-1.022-1.806-.831-2.566 1.045-4.276 2.565-9.003 3.943-13.755z"/><path d="M45.302 13.22c1.117 2.185 1.616 3.159 1.877 3.682-2.66 1.377-4.941 4.157-5.06 6.295-.071 1.283.428 2.732 1.592 2.732 1.924.047 4.893-2.732 5.226-6.058.285-2.993 1.568-3.943 4.846-5.274 5.796-2.352 11.712-4.37 17.864-6.675.523 1.306.95 2.637 1.544 4.133-5.44 2.043-19.86 7.388-19.86 7.388-.308 7.08-6.057 11-9.668 11-1.924 0-5.844-.856-5.844-7.294 0-4.395 3.801-7.934 7.483-9.93zM158.499 8.112c.546-1.9.95-3.278 1.472-5.036 1.426.427 2.637.807 4.11 1.259-.546 1.758-1.021 3.23-1.544 4.917-1.402-.404-2.542-.712-4.038-1.14zM154.745 25.905c.547-1.9 3.777-13.802 4.3-15.56 1.425.428 2.637.808 4.11 1.259-.547 1.758-3.849 13.755-4.371 15.465a357.72 357.72 0 0 0-4.039-1.164zM107.709 16.925c-1.544-.522-2.661-.902-4.063-1.354.523-1.758.927-3.207 1.45-4.989 1.401.452 2.518.808 3.991 1.26-.452 1.662-.856 3.135-1.378 5.083zM171.564 13.22c1.117 2.185 1.616 3.159 1.877 3.682-2.661 1.377-4.941 4.157-5.06 6.295-.071 1.283.427 2.732 1.591 2.732 1.925.047 4.894-2.732 5.227-6.058.285-2.993 1.568-3.943 4.846-5.274 5.796-2.352 11.712-4.37 17.864-6.675.523 1.306.951 2.637 1.544 4.133-5.44 2.02-19.859 7.388-19.859 7.388-.309 7.08-6.058 11-9.669 11-1.924 0-5.844-.856-5.844-7.294 0-4.395 3.825-7.934 7.483-9.93zM141.252 18.137h-4.039v23.114h4.039V18.137z"/><path d="M30.288 5.332c-8.005 3.398-17.317 7.84-27.437 14.872L.19 16.165s18.814-12.21 28.53-14.99c5.108-1.473 8.553.095 7.46 6.2-.903 5.037-4.727 18.197-4.727 18.197 6.936 4.609 15.512 11.38 21.997 22.735l-3.943 2.922c-4.537-8.79-13.398-17.01-21.38-22.165-1.235-.807-1.83-2.304-1.402-3.73 1.806-6.057 4.252-14.11 5.322-18.434.26-1.021-.76-1.995-1.758-1.568z"/><path d="M23.043 17.97h-4.038v23.115h4.038V17.97z"/></g><defs><clipPath id="a"><path fill="#fff" transform="translate(0 .605)" d="M0 0h200v50.79H0z"/></clipPath></defs></svg>