<svg width="22" height="21" viewBox="0 0 22 21" fill="none" xmlns="http://www.w3.org/2000/svg">
  <path fill-rule="evenodd" clip-rule="evenodd" d="M1.80006 1.53212C2.30006 1.02364 2.96674 0.752441 3.70006 0.752441C4.40005 0.752441 5.06673 1.0236 5.56673 1.56596C6.06673 2.07443 6.36673 2.75241 6.33341 3.46428C6.33341 4.21003 6.03341 4.88801 5.53341 5.39648C5.03341 5.90495 4.40009 6.17615 3.73342 6.17615H3.66674C3.00006 6.21004 2.30006 5.90495 1.80006 5.39648C1.30006 4.88801 1.00006 4.21003 1.00006 3.46428C1.00006 2.75241 1.26674 2.07447 1.80006 1.53212ZM3.66682 5.49834C4.20013 5.53222 4.70013 5.29495 5.06681 4.92205C5.46681 4.54916 5.66681 4.0068 5.66681 3.46444C5.66681 2.92208 5.46681 2.41361 5.06681 2.00683C4.70013 1.63393 4.20013 1.43054 3.70014 1.43054C3.1335 1.43054 2.6335 1.63393 2.26682 2.00683C1.86682 2.41361 1.66682 2.92208 1.66682 3.46444C1.66682 4.0068 1.86682 4.54916 2.26682 4.92205C2.6335 5.29495 3.16682 5.49834 3.66682 5.49834Z" fill="#A6A6A6"/>
  <path fill-rule="evenodd" clip-rule="evenodd" d="M2.29999 6.85413H4.99999C5.5333 6.85413 5.99998 7.32868 5.99998 7.87107V19.7694C5.99998 20.2778 5.5333 20.7524 4.99999 20.7524H2.33331C1.79999 20.7524 1.33331 20.2778 1.33331 19.7355V7.87107C1.33331 7.29479 1.76667 6.85413 2.29999 6.85413ZM5.00007 20.0747C5.16671 20.0747 5.33338 19.9391 5.33338 19.7696V7.87132C5.33338 7.70185 5.16674 7.53235 5.00007 7.53235H2.30007C2.13339 7.53235 2.00007 7.70181 2.00007 7.87132V19.7357C2.00007 19.9052 2.16671 20.0747 2.33339 20.0747H5.00007Z" fill="#A6A6A6"/>
  <path fill-rule="evenodd" clip-rule="evenodd" d="M16.3333 6.51497H15.6333C14.3333 6.51497 13.1 7.09126 12.3 8.00651V7.53192C12.3 7.19295 11.9667 6.85394 11.6334 6.85394H8.30004C8.00004 6.85394 7.63336 7.12514 7.63336 7.498V20.142C7.63336 20.5149 8.00004 20.7522 8.30004 20.7522H11.9667C12.2667 20.7522 12.6334 20.5149 12.6334 20.142V12.82C12.6334 11.7014 13.4334 10.82 14.4667 10.82C15 10.82 15.5 11.0234 15.8667 11.3963C16.2 11.7014 16.3334 12.176 16.3334 12.7861V20.0743C16.3334 20.4132 16.6667 20.7523 17.0001 20.7523H20.3334C20.6667 20.7523 21.0001 20.4133 21.0001 20.0743V11.3285C21 8.61668 18.9667 6.51497 16.3333 6.51497ZM20.3333 20.0406L20.3 20.0745H17.0333L17 12.7864C17 11.9728 16.8 11.3626 16.3667 10.922C15.8667 10.4135 15.2 10.1423 14.5 10.1423C13.1 10.1762 12 11.3288 12 12.8203V20.0745H8.33333V7.53213H11.6333L11.6666 7.56601V9.7016L12.6 8.75246C13.2666 7.80333 14.4333 7.19316 15.6666 7.19316H16.3666C18.6 7.19316 20.3333 9.02366 20.3333 11.3288V20.0406Z" fill="#A6A6A6"/>
  <path fill-rule="evenodd" clip-rule="evenodd" d="M1.80006 1.53212C2.30006 1.02364 2.96674 0.752441 3.70006 0.752441C4.40005 0.752441 5.06673 1.0236 5.56673 1.56596C6.06673 2.07443 6.36673 2.75241 6.33341 3.46428C6.33341 4.21003 6.03341 4.88801 5.53341 5.39648C5.03341 5.90495 4.40009 6.17615 3.73342 6.17615H3.66674C3.00006 6.21004 2.30006 5.90495 1.80006 5.39648C1.30006 4.88801 1.00006 4.21003 1.00006 3.46428C1.00006 2.75241 1.26674 2.07447 1.80006 1.53212ZM3.66682 5.49834C4.20013 5.53222 4.70013 5.29495 5.06681 4.92205C5.46681 4.54916 5.66681 4.0068 5.66681 3.46444C5.66681 2.92208 5.46681 2.41361 5.06681 2.00683C4.70013 1.63393 4.20013 1.43054 3.70014 1.43054C3.1335 1.43054 2.6335 1.63393 2.26682 2.00683C1.86682 2.41361 1.66682 2.92208 1.66682 3.46444C1.66682 4.0068 1.86682 4.54916 2.26682 4.92205C2.6335 5.29495 3.16682 5.49834 3.66682 5.49834Z" stroke="#A6A6A6" stroke-width="0.5"/>
  <path fill-rule="evenodd" clip-rule="evenodd" d="M2.29999 6.85413H4.99999C5.5333 6.85413 5.99998 7.32868 5.99998 7.87107V19.7694C5.99998 20.2778 5.5333 20.7524 4.99999 20.7524H2.33331C1.79999 20.7524 1.33331 20.2778 1.33331 19.7355V7.87107C1.33331 7.29479 1.76667 6.85413 2.29999 6.85413ZM5.00007 20.0747C5.16671 20.0747 5.33338 19.9391 5.33338 19.7696V7.87132C5.33338 7.70185 5.16674 7.53235 5.00007 7.53235H2.30007C2.13339 7.53235 2.00007 7.70181 2.00007 7.87132V19.7357C2.00007 19.9052 2.16671 20.0747 2.33339 20.0747H5.00007Z" stroke="#A6A6A6" stroke-width="0.5"/>
  <path fill-rule="evenodd" clip-rule="evenodd" d="M16.3333 6.51497H15.6333C14.3333 6.51497 13.1 7.09126 12.3 8.00651V7.53192C12.3 7.19295 11.9667 6.85394 11.6334 6.85394H8.30004C8.00004 6.85394 7.63336 7.12514 7.63336 7.498V20.142C7.63336 20.5149 8.00004 20.7522 8.30004 20.7522H11.9667C12.2667 20.7522 12.6334 20.5149 12.6334 20.142V12.82C12.6334 11.7014 13.4334 10.82 14.4667 10.82C15 10.82 15.5 11.0234 15.8667 11.3963C16.2 11.7014 16.3334 12.176 16.3334 12.7861V20.0743C16.3334 20.4132 16.6667 20.7523 17.0001 20.7523H20.3334C20.6667 20.7523 21.0001 20.4133 21.0001 20.0743V11.3285C21 8.61668 18.9667 6.51497 16.3333 6.51497ZM20.3333 20.0406L20.3 20.0745H17.0333L17 12.7864C17 11.9728 16.8 11.3626 16.3667 10.922C15.8667 10.4135 15.2 10.1423 14.5 10.1423C13.1 10.1762 12 11.3288 12 12.8203V20.0745H8.33333V7.53213H11.6333L11.6666 7.56601V9.7016L12.6 8.75246C13.2666 7.80333 14.4333 7.19316 15.6666 7.19316H16.3666C18.6 7.19316 20.3333 9.02366 20.3333 11.3288V20.0406Z" stroke="#A6A6A6" stroke-width="0.5"/>
</svg>
