<svg width="156" height="112" viewBox="0 0 156 112" fill="none" xmlns="http://www.w3.org/2000/svg">
  <g clip-path="url(#clip0_55_1187)">
    <path fill-rule="evenodd" clip-rule="evenodd" d="M0 0H156V111.429H0V0Z" fill="url(#paint0_linear_55_1187)"/>
    <path fill-rule="evenodd" clip-rule="evenodd" d="M0 0H156V111.429H0V0Z" fill="url(#paint1_linear_55_1187)"/>
    <path fill-rule="evenodd" clip-rule="evenodd" d="M17.9883 57.7405C16.259 56.6215 16.2945 54.7843 17.9883 53.6883L74.8686 16.8834C76.598 15.7644 79.4374 15.7874 81.1312 16.8834L138.011 53.6883C139.741 54.8073 139.705 56.6445 138.011 57.7405L81.1312 94.5454C79.4018 95.6644 76.5624 95.6414 74.8686 94.5454L17.9883 57.7405Z" fill="#FDD216"/>
    <path d="M78 81.7144C92.3594 81.7144 104 70.0738 104 55.7144C104 41.355 92.3594 29.7144 78 29.7144C63.6406 29.7144 52 41.355 52 55.7144C52 70.0738 63.6406 81.7144 78 81.7144Z" fill="url(#paint2_linear_55_1187)"/>
    <mask id="mask0_55_1187" style="mask-type:luminance" maskUnits="userSpaceOnUse" x="52" y="29" width="52" height="53">
      <path d="M78 81.7144C92.3594 81.7144 104 70.0738 104 55.7144C104 41.355 92.3594 29.7144 78 29.7144C63.6406 29.7144 52 41.355 52 55.7144C52 70.0738 63.6406 81.7144 78 81.7144Z" fill="white"/>
    </mask>
    <g mask="url(#mask0_55_1187)">
      <path d="M51.2544 51.8052C53.225 50.2094 62.1216 51.5082 77.5111 55.6134C88.4621 58.5347 101.081 64.9842 103.969 68.5499L106.306 71.4365L112.079 66.7615L109.742 63.875C105.656 58.829 91.756 51.725 79.4257 48.4359C60.2158 43.3115 51.5088 42.0404 46.5794 46.0321L43.6929 48.3696L48.3678 54.1427L51.2544 51.8052Z" fill="white"/>
    </g>
  </g>
  <defs>
    <linearGradient id="paint0_linear_55_1187" x1="7800" y1="0" x2="7800" y2="11142.9" gradientUnits="userSpaceOnUse">
      <stop stop-color="white"/>
      <stop offset="1" stop-color="#F0F0F0"/>
    </linearGradient>
    <linearGradient id="paint1_linear_55_1187" x1="7800" y1="0" x2="7800" y2="11142.9" gradientUnits="userSpaceOnUse">
      <stop stop-color="#05AB41"/>
      <stop offset="1" stop-color="#019C39"/>
    </linearGradient>
    <linearGradient id="paint2_linear_55_1187" x1="2652" y1="29.7144" x2="2652" y2="5229.71" gradientUnits="userSpaceOnUse">
      <stop stop-color="#053087"/>
      <stop offset="1" stop-color="#012877"/>
    </linearGradient>
    <clipPath id="clip0_55_1187">
      <rect width="156" height="112" rx="18" fill="white"/>
    </clipPath>
  </defs>
</svg>
