<svg width="156" height="114" viewBox="0 0 156 114" fill="none" xmlns="http://www.w3.org/2000/svg">
  <g clip-path="url(#clip0_55_1181)">
    <path d="M153.595 9.33341C150.592 4.17241 145.067 0.666748 138.667 0.666748H78V9.33341H153.595ZM0 87.3334H156V96.0001H0V87.3334ZM78 52.6667H156V61.3334H78V52.6667ZM78 35.3334H156V44.0001H78V35.3334ZM0 70.0001H156V78.6667H0V70.0001ZM17.3333 113.333H138.667C145.067 113.333 150.592 109.828 153.595 104.667H2.405C5.408 109.828 10.933 113.333 17.3333 113.333ZM78 18.0001H156V26.6667H78V18.0001Z" fill="#B22334"/>
    <path d="M0.294667 98.9423C0.368333 99.3453 0.450667 99.7483 0.550333 100.143C0.663 100.58 0.801667 101.001 0.949 101.425C1.33467 102.548 1.80267 103.631 2.392 104.645L2.405 104.667H153.595L153.604 104.649C154.189 103.64 154.657 102.556 155.042 101.438C155.19 101.009 155.333 100.58 155.445 100.134C155.545 99.7439 155.627 99.3453 155.701 98.9423C155.879 97.9889 156 97.0096 156 95.9999H0C0 97.0096 0.121333 97.9846 0.294667 98.9423ZM0 78.6666H156V87.3333H0V78.6666ZM0 61.3333V69.9999H156V61.3333H78H0ZM78 43.9999H156V52.6666H78V43.9999ZM78 26.6666H156V35.3333H78V26.6666ZM0 17.9999C0 16.9903 0.13 16.0196 0.294667 15.0576C0.121333 16.0153 0 16.9903 0 17.9999ZM0.554667 13.8573C0.663 13.4153 0.814667 12.9949 0.953333 12.5703C0.806 12.9949 0.667333 13.4196 0.554667 13.8573ZM78 17.9999H156C156 16.9903 155.879 16.0109 155.701 15.0533C155.627 14.6546 155.549 14.2559 155.445 13.8659C155.328 13.4196 155.19 12.9863 155.038 12.5573C154.652 11.4393 154.184 10.3603 153.599 9.35059C153.604 9.34625 153.599 9.33759 153.595 9.33325H78V17.9999Z" fill="#EEEEEE"/>
    <path d="M78 0.666748H17.3333C7.761 0.666748 0 8.42775 0 18.0001V61.3334H78V0.666748Z" fill="#3C3B6E"/>
    <path d="M8.6709 12.4793L11.3489 14.4249L10.3262 17.5666L12.9999 15.6253L15.6779 17.5666L14.6552 14.4249L17.3332 12.4793H14.0226L12.9999 9.33325L11.9816 12.4793H8.6709ZM17.3376 21.1459L20.0156 23.0916L18.9929 26.2333L21.6666 24.2919L24.3446 26.2333L23.3219 23.0916L25.9999 21.1459H22.6892L21.6666 17.9999L20.6482 21.1459H17.3376ZM34.6709 21.1459L37.3489 23.0916L36.3262 26.2333L38.9999 24.2919L41.6779 26.2333L40.6552 23.0916L43.3332 21.1459H40.0226L38.9999 17.9999L37.9816 21.1459H34.6709ZM52.0042 21.1459L54.6822 23.0916L53.6596 26.2333L56.3332 24.2919L59.0112 26.2333L57.9886 23.0916L60.6666 21.1459H57.3559L56.3332 17.9999L55.3149 21.1459H52.0042ZM17.3376 38.4793L20.0156 40.4249L18.9929 43.5666L21.6666 41.6253L24.3446 43.5666L23.3219 40.4249L25.9999 38.4793H22.6892L21.6666 35.3333L20.6482 38.4793H17.3376ZM34.6709 38.4793L37.3489 40.4249L36.3262 43.5666L38.9999 41.6253L41.6779 43.5666L40.6552 40.4249L43.3332 38.4793H40.0226L38.9999 35.3333L37.9816 38.4793H34.6709ZM52.0042 38.4793L54.6822 40.4249L53.6596 43.5666L56.3332 41.6253L59.0112 43.5666L57.9886 40.4249L60.6666 38.4793H57.3559L56.3332 35.3333L55.3149 38.4793H52.0042ZM26.0042 12.4793L28.6822 14.4249L27.6596 17.5666L30.3332 15.6253L33.0112 17.5666L31.9886 14.4249L34.6666 12.4793H31.3559L30.3332 9.33325L29.3149 12.4793H26.0042ZM43.3376 12.4793L46.0156 14.4249L44.9929 17.5666L47.6666 15.6253L50.3446 17.5666L49.3219 14.4249L51.9999 12.4793H48.6892L47.6666 9.33325L46.6482 12.4793H43.3376ZM60.6709 12.4793L63.3489 14.4249L62.3262 17.5666L64.9999 15.6253L67.6779 17.5666L66.6552 14.4249L69.3332 12.4793H66.0226L64.9999 9.33325L63.9816 12.4793H60.6709ZM8.6709 29.8126L11.3489 31.7583L10.3262 34.8999L12.9999 32.9586L15.6779 34.8999L14.6552 31.7583L17.3332 29.8126H14.0226L12.9999 26.6666L11.9816 29.8126H8.6709ZM27.6596 34.8999L30.3332 32.9586L33.0112 34.8999L31.9886 31.7583L34.6666 29.8126H31.3559L30.3332 26.6666L29.3149 29.8126H26.0042L28.6822 31.7583L27.6596 34.8999ZM43.3376 29.8126L46.0156 31.7583L44.9929 34.8999L47.6666 32.9586L50.3446 34.8999L49.3219 31.7583L51.9999 29.8126H48.6892L47.6666 26.6666L46.6482 29.8126H43.3376ZM60.6709 29.8126L63.3489 31.7583L62.3262 34.8999L64.9999 32.9586L67.6779 34.8999L66.6552 31.7583L69.3332 29.8126H66.0226L64.9999 26.6666L63.9816 29.8126H60.6709ZM8.6709 47.1459L11.3489 49.0916L10.3262 52.2333L12.9999 50.2919L15.6779 52.2333L14.6552 49.0916L17.3332 47.1459H14.0226L12.9999 43.9999L11.9816 47.1459H8.6709ZM27.6596 52.2333L30.3332 50.2919L33.0112 52.2333L31.9886 49.0916L34.6666 47.1459H31.3559L30.3332 43.9999L29.3149 47.1459H26.0042L28.6822 49.0916L27.6596 52.2333ZM43.3376 47.1459L46.0156 49.0916L44.9929 52.2333L47.6666 50.2919L50.3446 52.2333L49.3219 49.0916L51.9999 47.1459H48.6892L47.6666 43.9999L46.6482 47.1459H43.3376ZM60.6709 47.1459L63.3489 49.0916L62.3262 52.2333L64.9999 50.2919L67.6779 52.2333L66.6552 49.0916L69.3332 47.1459H66.0226L64.9999 43.9999L63.9816 47.1459H60.6709Z" fill="white"/>
  </g>
  <defs>
    <clipPath id="clip0_55_1181">
      <rect width="156" height="114" fill="white"/>
    </clipPath>
  </defs>
</svg>
