<?xml version="1.0" encoding="UTF-8"?>
<svg width="21px" height="21px" viewBox="0 0 21 21" version="1.1" xmlns="http://www.w3.org/2000/svg" xmlns:xlink="http://www.w3.org/1999/xlink">
    <!-- Generator: Sketch 62 (91390) - https://sketch.com -->
    <title>instagram</title>
    <desc>Created with Sketch.</desc>
    <g id="Portfolio" stroke="none" stroke-width="1" fill="none" fill-rule="evenodd">
        <g id="Desktop" transform="translate(-1360.000000, -1915.000000)">
            <g id="about" transform="translate(133.000000, 1803.000000)">
                <g id="social" transform="translate(1227.000000, 0.000000)">
                    <g id="instagram" transform="translate(1.000000, 113.000000)">
                        <path d="M6.11445738,0.00143574995 L12.590287,2.58960077e-16 C14.8190838,2.58960077e-16 15.6272994,0.232064028 16.4421143,0.667831759 C17.2569291,1.10359949 17.8964005,1.74307093 18.3321682,2.55788574 L18.4459422,2.78101661 C18.8082115,3.53138919 19,4.38353405 19,6.409713 L19,12.590287 L18.9942677,13.1639919 C18.956123,14.9660867 18.7283207,15.7013735 18.3321682,16.4421143 C17.8964005,17.2569291 17.2569291,17.8964005 16.4421143,18.3321682 L16.2189834,18.4459422 C15.4686108,18.8082115 14.616466,19 12.590287,19 L6.409713,19 L5.83600807,18.9942677 C4.03391332,18.956123 3.29862648,18.7283207 2.55788574,18.3321682 C1.74307093,17.8964005 1.10359949,17.2569291 0.667831759,16.4421143 L0.554057827,16.2189834 C0.209901921,15.5061294 0.0196050476,14.701426 0.00143574995,12.8855426 L1.72640051e-16,6.409713 C1.72640051e-16,4.18091615 0.232064028,3.37270056 0.667831759,2.55788574 C1.10359949,1.74307093 1.74307093,1.10359949 2.55788574,0.667831759 L2.78101661,0.554057827 C3.49387056,0.209901921 4.29857399,0.0196050476 6.11445738,0.00143574995 Z" id="Rectangle" stroke="#F8F8F8" stroke-width="1.2"></path>
                        <circle id="Oval" stroke="#F8F8F8" stroke-width="1.2" cx="9.5" cy="9.5" r="4.5"></circle>
                        <circle id="Oval-Copy" fill="#F8F8F8" cx="15" cy="4" r="1"></circle>
                    </g>
                </g>
            </g>
        </g>
    </g>
</svg>