<?xml version="1.0" encoding="UTF-8"?>
<svg width="22px" height="21px" viewBox="0 0 22 21" version="1.1" xmlns="http://www.w3.org/2000/svg" xmlns:xlink="http://www.w3.org/1999/xlink">
    <!-- Generator: Sketch 62 (91390) - https://sketch.com -->
    <title>linkedin copy</title>
    <desc>Created with Sketch.</desc>
    <g id="Portfolio" stroke="none" stroke-width="1" fill="none" fill-rule="evenodd">
        <g id="Desktop" transform="translate(-1316.000000, -1828.000000)" fill="#EFF3F2" fill-rule="nonzero" stroke="#EFF3F2" stroke-width="0.5">
            <g id="about" transform="translate(90.000000, 1755.000000)">
                <g id="social" transform="translate(1227.000000, 0.000000)">
                    <path d="M3.99999219,79.9999883 C4.53331146,79.9999883 4.99999023,80.466628 4.99999023,80.9999883 L4.99999023,80.9999883 L4.99999023,92.6999635 C4.99999023,93.1999625 4.53331146,93.6666413 3.99999219,93.6666413 L3.99999219,93.6666413 L1.33331966,93.6666413 C0.799998438,93.6666413 0.333319661,93.1999625 0.333319661,92.6666432 L0.333319661,92.6666432 L0.333319661,80.9999883 C0.333319661,80.4333077 0.76667819,79.9999883 1.29999746,79.9999883 L1.29999746,79.9999883 Z M15.3332904,79.6666296 C17.9666446,79.6666296 20,81.7333052 20,84.3999406 L20,84.3999406 L20,92.9999238 C20,93.3332826 19.6666413,93.6666022 19.3333216,93.6666022 L19.3333216,93.6666022 L16.0000078,93.6666022 C15.6666491,93.6666022 15.3333294,93.3332435 15.3333294,92.9999238 L15.3333294,92.9999238 L15.3333294,85.8332581 C15.3333294,85.2332593 15.1999703,84.7665805 14.8666507,84.4665811 C14.4999717,84.0999021 13.9999727,83.8999025 13.4666534,83.8999025 C12.4333351,83.8999025 11.6333367,84.7665805 11.6333367,85.8665784 L11.6333367,85.8665784 L11.6333367,93.0665643 C11.6333367,93.4332433 11.2666577,93.6666022 10.9666583,93.6666022 L10.9666583,93.6666022 L7.29998574,93.6666022 C6.99998633,93.6666022 6.63330736,93.4332433 6.63330736,93.0665643 L6.63330736,93.0665643 L6.63330736,80.6332683 C6.63330736,80.2666284 6.99998633,79.9999492 7.29998574,79.9999492 L7.29998574,79.9999492 L10.6333074,79.9999492 C10.9666583,79.9999492 11.2999779,80.3333079 11.2999779,80.6666296 L11.2999779,80.6666296 L11.2999779,81.1333064 C12.0999764,80.2333081 13.3332943,79.6666296 14.6332917,79.6666296 L14.6332917,79.6666296 Z M3.99999805,80.6666667 L1.29999746,80.6666667 C1.1333181,80.6666667 0.999998047,80.833307 0.999998047,80.9999863 L0.999998047,80.9999863 L0.999998047,92.6666432 C0.999998047,92.8332835 1.16663835,92.9999629 1.33331771,92.9999629 L1.33331771,92.9999629 L3.99999805,92.9999629 C4.16663249,92.9999629 4.33331185,92.8666428 4.33331185,92.6999635 L4.33331185,92.6999635 L4.33331185,80.9999863 C4.33331185,80.833346 4.16667155,80.6666667 3.99999805,80.6666667 L3.99999805,80.6666667 Z M15.3666106,80.3333079 L14.666612,80.3333079 C13.433255,80.3333079 12.2666167,80.9333068 11.5999383,81.8666253 L11.5999383,81.8666253 L10.6666198,82.7999438 L10.6666198,80.6999479 L10.6332995,80.6666276 L7.33330599,80.6666276 L7.33330599,92.9999238 L10.9999785,92.9999238 L10.9999785,85.8666174 C10.9999785,84.3999797 12.0999764,83.2666225 13.4999736,83.2333023 C14.1999723,83.2333023 14.8666507,83.4999814 15.3666497,83.9999805 C15.7999691,84.4332999 15.9999688,85.0332988 15.9999688,85.8332972 L15.9999688,85.8332972 L16.033289,92.9999238 L19.2999623,92.9999238 L19.3332826,92.9666036 L19.3332826,84.3999797 C19.3332826,82.1333044 17.5999266,80.3333079 15.3666106,80.3333079 L15.3666106,80.3333079 Z M2.69999473,74 C3.39999336,74 4.06667174,74.2666401 4.56667077,74.7999594 C5.06666979,75.2999584 5.36666921,75.9666368 5.33334896,76.6666354 C5.33334896,77.3999543 5.03334954,78.0666327 4.53335052,78.5666317 C4.0333515,79.0666307 3.40003242,79.3333099 2.73335404,79.3333099 L2.73335404,79.3333099 L2.66667448,79.3333099 C2,79.3666301 1.29999746,79.0666307 0.799998438,78.5666317 C0.299999414,78.0666327 4.4408921e-14,77.3999543 4.4408921e-14,76.6666354 C4.4408921e-14,75.9666368 0.266679167,75.2999975 0.799998438,74.7666782 C1.29999746,74.2666792 1.96667585,74 2.69999473,74 Z M2.69999473,74.6666784 C2.13335521,74.6666784 1.63335618,74.866678 1.26667721,75.233357 C0.866677995,75.6333562 0.666678385,76.1333552 0.666678385,76.6666784 C0.666678385,77.1999938 0.866677995,77.733313 1.26667721,78.099992 C1.63335618,78.466671 2.16667839,78.6666784 2.66667839,78.6666784 C3.19999375,78.6999908 3.69999277,78.466671 4.06667174,78.099992 C4.46667096,77.733313 4.66667839,77.1999938 4.66667839,76.6666784 C4.66667839,76.1333552 4.46667096,75.6333562 4.06667174,75.233357 C3.69999277,74.866678 3.19999375,74.6666784 2.69999473,74.6666784 Z" id="linkedin-copy"></path>
                </g>
            </g>
        </g>
    </g>
</svg>