<?xml version="1.0" encoding="UTF-8"?>
<svg width="26px" height="26px" viewBox="0 0 26 26" version="1.1" xmlns="http://www.w3.org/2000/svg" xmlns:xlink="http://www.w3.org/1999/xlink">
    <!-- Generator: Sketch 62 (91390) - https://sketch.com -->
    <title>Shape</title>
    <desc>Created with Sketch.</desc>
    <g id="Portfolio" stroke="none" stroke-width="1" fill="none" fill-rule="evenodd">
        <g id="Desktop" transform="translate(-198.000000, -1407.000000)" fill="#2E2E2E" fill-rule="nonzero">
            <g id="work-2/2" transform="translate(-239.000000, 938.000000)">
                <path d="M450,469 C446.552185,469 443.245582,470.369635 440.807609,472.807609 C438.369635,475.245582 437,478.552185 437,482 C437,485.447815 438.369635,488.754418 440.807609,491.192391 C443.245582,493.630365 446.552185,495 450,495 C453.447815,495 456.754418,493.630365 459.192391,491.192391 C461.630365,488.754418 463,485.447815 463,482 C463,478.552185 461.630365,475.245582 459.192391,472.807609 C456.754418,470.369635 453.447815,469 450,469 Z M447.482422,476 C447.601082,475.9957 447.717417,476.033422 447.810547,476.107422 L454.810547,481.607422 C455.064351,481.807622 455.064351,482.192378 454.810547,482.392578 C452.477711,484.225678 450.143389,486.057725 447.810547,487.890625 C447.481873,488.151225 446.99775,487.915494 446.999992,487.496094 L446.999992,476.5 C446.999834,476.2307 447.213194,476.011 447.482422,476 Z" id="Shape"></path>
            </g>
        </g>
    </g>
</svg>