<?xml version="1.0" encoding="UTF-8"?>
<svg width="26px" height="26px" viewBox="0 0 26 26" version="1.1" xmlns="http://www.w3.org/2000/svg" xmlns:xlink="http://www.w3.org/1999/xlink">
    <!-- Generator: Sketch 62 (91390) - https://sketch.com -->
    <title>play</title>
    <desc>Created with Sketch.</desc>
    <g id="Portfolio" stroke="none" stroke-width="1" fill="none" fill-rule="evenodd">
        <g id="Desktop" transform="translate(-707.000000, -806.000000)" fill="#EFF3F2" fill-rule="nonzero">
            <g id="header" transform="translate(90.000000, 50.000000)">
                <g id="cta-down" transform="translate(617.000000, 660.000000)">
                    <path d="M13,96 C9.55218474,96 6.24558217,97.3696351 3.80760862,99.8076086 C1.36963507,102.245582 0,105.552185 0,109 C0,112.447815 1.36963507,115.754418 3.80760862,118.192391 C6.24558217,120.630365 9.55218474,122 13,122 C16.4478153,122 19.7544178,120.630365 22.1923914,118.192391 C24.6303649,115.754418 26,112.447815 26,109 C26,105.552185 24.6303649,102.245582 22.1923914,99.8076086 C19.7544178,97.3696351 16.4478153,96 13,96 Z M10.482422,103 C10.601082,102.9957 10.717417,103.033422 10.810547,103.107422 L17.810547,108.607422 C18.064351,108.807622 18.064351,109.192378 17.810547,109.392578 C15.477711,111.225678 13.143389,113.057725 10.810547,114.890625 C10.481873,115.151225 9.99775,114.915494 9.99999219,114.496094 L9.99999219,103.5 C9.9998337,103.2307 10.213194,103.011 10.482422,103 Z" id="play" transform="translate(13.000000, 109.000000) rotate(90.000000) translate(-13.000000, -109.000000) "></path>
                </g>
            </g>
        </g>
    </g>
</svg>