<?xml version="1.0" encoding="UTF-8"?>
<svg width="22px" height="18px" viewBox="0 0 22 18" version="1.1" xmlns="http://www.w3.org/2000/svg" xmlns:xlink="http://www.w3.org/1999/xlink">
    <!-- Generator: Sketch 62 (91390) - https://sketch.com -->
    <title>twitter copy</title>
    <desc>Created with Sketch.</desc>
    <g id="Portfolio" stroke="none" stroke-width="1" fill="none" fill-rule="evenodd">
        <g id="Desktop" transform="translate(-1316.000000, -1754.000000)" fill="#EFF3F2" fill-rule="nonzero" stroke="#EFF3F2" stroke-width="0.5">
            <g id="about" transform="translate(90.000000, 1755.000000)">
                <g id="social" transform="translate(1227.000000, 0.000000)">
                    <path d="M19.885425,1.83447039 C19.7836001,1.73264552 19.613866,1.69869086 19.4780473,1.73264552 L18.7991105,1.97028904 C19.2064882,1.49504113 19.4780473,0.985838551 19.6477815,0.510590637 C19.7156908,0.340856445 19.6817362,0.205076915 19.5798722,0.103212929 C19.4780473,0.00138806072 19.3083131,-0.0325666013 19.1724945,0.0353036045 C18.2219986,0.442681313 17.4072823,0.782149696 16.7283456,0.985799432 C16.7283456,1.01975409 16.6943909,0.985799432 16.6604362,0.985799432 C16.117279,0.68028571 14.7933601,0.00134894245 13.8428643,0.00134894245 C11.432631,0.0353036045 9.49768464,2.07211391 9.49768464,4.55021746 L9.49768464,4.68599699 C5.96722127,4.00706023 4.03227496,2.98865507 1.92755533,0.782110578 L1.58816518,0.442642194 L1.38447633,0.850019902 C0.230291645,3.0565644 1.04500794,5.05942004 2.36892682,6.41729358 C1.75789937,6.31546871 1.35052166,6.11177985 0.977098619,5.80626613 C0.841319089,5.70444126 0.671584897,5.6704866 0.501850705,5.77231147 C0.366071175,5.84022079 0.298161851,6.04387053 0.332116513,6.21360472 C0.807364427,7.80908265 1.99550377,9.09908598 3.28546798,9.87984762 C2.67444054,9.87984762 2.16523796,9.8119383 1.65603539,9.47246991 C1.52025586,9.40456059 1.316567,9.40456059 1.18078747,9.50642457 C1.04500794,9.60828856 0.977098619,9.77798363 1.04500794,9.94771783 C1.65603539,11.6790144 2.84417473,12.5955556 4.7452055,12.8331991 C3.76075501,13.410311 2.4707908,13.8855589 0.467935161,13.9195136 C0.264246307,13.9195136 0.0945121153,14.0552931 0.0266419095,14.2250273 C-0.0412674146,14.4287161 0.0266419095,14.5984503 0.162421439,14.7342299 C1.38451545,15.7186804 4.1002234,16.2957923 7.46095258,16.2957923 C13.4355648,16.2957923 18.3239017,10.9661621 18.3239017,4.41443793 L18.3239017,4.31261307 C19.0707478,3.93919002 19.6817753,3.22629859 19.987289,2.2418481 C20.0212045,2.10602945 19.9872499,1.93629526 19.885425,1.83447039 Z M17.8486147,3.76941671 L17.6449259,3.83732603 L17.6449259,4.41443793 C17.6449259,10.5927391 13.0621027,15.6168555 7.46091346,15.6168555 C4.37174334,15.6168555 2.30101749,15.1076529 1.18078747,14.5644957 C3.5231115,14.3947615 4.88098503,13.6479154 5.93334485,12.8331991 L6.78201581,12.2221716 L5.76361066,12.2221716 C3.82866434,12.2221716 2.64052499,11.6790144 1.96158823,10.3890502 C2.57261567,10.5927391 3.21759778,10.5927391 3.93048921,10.5587844 C4.20204827,10.5248297 4.47364644,10.5248297 4.7452055,10.5248297 L4.84703037,9.84589296 C3.55706616,9.47246991 2.02945843,8.31828523 1.28261234,6.75676196 C1.96154911,7.06227568 2.70835608,7.13018501 3.38729285,7.13018501 L4.43965266,7.13018501 L3.59102082,6.51911844 C2.87812939,6.00991587 0.773448883,4.21074908 1.79185404,1.63078154 C3.96444387,3.76941671 6.03520883,4.7538672 9.76932194,5.43280397 L10.1766996,5.50071329 L10.1766996,4.55021746 C10.1766996,2.44553695 11.8061322,0.714240372 13.8429425,0.68028571 C14.6237042,0.646331048 15.9137075,1.35922248 16.2870914,1.56291133 C16.4907803,1.6647362 16.6944691,1.69869086 16.8981189,1.63082066 C17.4073215,1.46108646 18.0183489,1.22344295 18.6972857,0.951883888 C18.3917719,1.46108646 17.9843942,1.93633438 17.4412761,2.37766675 C17.3054966,2.47949162 17.2715419,2.68318047 17.3394513,2.85291466 C17.4073606,3.02264885 17.6110103,3.09055818 17.7807445,3.02264885 L19.1046634,2.5813556 C18.8670199,3.02260974 18.4935968,3.53181231 17.8486147,3.76941671 Z" id="twitter-copy"></path>
                </g>
            </g>
        </g>
    </g>
</svg>